G04 #@! TF.FileFunction,Soldermask,Top*
%FSLAX46Y46*%
G04 Gerber Fmt 4.6, Leading zero omitted, Abs format (unit mm)*
G04 Created by KiCad (PCBNEW 4.0.5+dfsg1-4~bpo8+1) date Sat Jun 24 18:36:41 2017*
%MOMM*%
%LPD*%
G01*
G04 APERTURE LIST*
%ADD10C,0.100000*%
%ADD11C,1.300480*%
%ADD12O,2.200000X5.000000*%
%ADD13R,0.797560X0.797560*%
%ADD14R,2.032000X1.727200*%
%ADD15O,2.032000X1.727200*%
%ADD16R,1.200000X0.900000*%
%ADD17R,2.032000X2.032000*%
%ADD18O,2.032000X2.032000*%
G04 APERTURE END LIST*
D10*
D11*
X162990000Y-48310000D03*
X164990000Y-48310000D03*
X162990000Y-50310000D03*
X164990000Y-50310000D03*
X162990000Y-52310000D03*
X164990000Y-52310000D03*
X162990000Y-54310000D03*
X164990000Y-54310000D03*
X162990000Y-56310000D03*
X164990000Y-56310000D03*
X162990000Y-58310000D03*
X164990000Y-58310000D03*
X162990000Y-60310000D03*
X164990000Y-60310000D03*
X162990000Y-62310000D03*
X164990000Y-62310000D03*
X162990000Y-64310000D03*
X164990000Y-64310000D03*
X184990000Y-64310000D03*
X182990000Y-64310000D03*
X184990000Y-62310000D03*
X182990000Y-62310000D03*
X184990000Y-60310000D03*
X182990000Y-60310000D03*
X184990000Y-58310000D03*
X182990000Y-58310000D03*
X184990000Y-56310000D03*
X182990000Y-56310000D03*
X184990000Y-54310000D03*
X182990000Y-54310000D03*
X184990000Y-52310000D03*
X182990000Y-52310000D03*
X184990000Y-50310000D03*
X182990000Y-50310000D03*
X184990000Y-48310000D03*
X182990000Y-48310000D03*
D12*
X174000000Y-86000000D03*
X174000000Y-60500000D03*
D13*
X165341300Y-67437000D03*
X163842700Y-67437000D03*
D14*
X170180000Y-48260000D03*
D15*
X170180000Y-50800000D03*
X170180000Y-53340000D03*
X170180000Y-55880000D03*
X170180000Y-58420000D03*
X170180000Y-60960000D03*
X170180000Y-63500000D03*
X170180000Y-66040000D03*
X170180000Y-68580000D03*
X170180000Y-71120000D03*
X170180000Y-73660000D03*
X170180000Y-76200000D03*
X170180000Y-78740000D03*
X170180000Y-81280000D03*
X170180000Y-83820000D03*
X170180000Y-86360000D03*
X170180000Y-88900000D03*
X170180000Y-91440000D03*
D14*
X163830000Y-72390000D03*
D15*
X163830000Y-74930000D03*
X163830000Y-77470000D03*
X163830000Y-80010000D03*
X163830000Y-82550000D03*
X163830000Y-85090000D03*
X163830000Y-87630000D03*
X163830000Y-90170000D03*
D14*
X177800000Y-48260000D03*
D15*
X177800000Y-50800000D03*
X177800000Y-53340000D03*
X177800000Y-55880000D03*
X177800000Y-58420000D03*
X177800000Y-60960000D03*
X177800000Y-63500000D03*
X177800000Y-66040000D03*
X177800000Y-68580000D03*
X177800000Y-71120000D03*
X177800000Y-73660000D03*
X177800000Y-76200000D03*
X177800000Y-78740000D03*
X177800000Y-81280000D03*
X177800000Y-83820000D03*
X177800000Y-86360000D03*
X177800000Y-88900000D03*
X177800000Y-91440000D03*
D14*
X184150000Y-72390000D03*
D15*
X184150000Y-74930000D03*
X184150000Y-77470000D03*
X184150000Y-80010000D03*
X184150000Y-82550000D03*
X184150000Y-85090000D03*
X184150000Y-87630000D03*
X184150000Y-90170000D03*
D16*
X162857000Y-69342000D03*
X165057000Y-69342000D03*
D17*
X184500000Y-96000000D03*
D18*
X184500000Y-98540000D03*
D17*
X163500000Y-96000000D03*
D18*
X163500000Y-98540000D03*
M02*
