G04 #@! TF.FileFunction,Legend,Top*
%FSLAX46Y46*%
G04 Gerber Fmt 4.6, Leading zero omitted, Abs format (unit mm)*
G04 Created by KiCad (PCBNEW 4.0.5+dfsg1-4~bpo8+1) date Sat Jun 24 18:36:41 2017*
%MOMM*%
%LPD*%
G01*
G04 APERTURE LIST*
%ADD10C,0.100000*%
%ADD11C,0.150000*%
%ADD12C,0.254000*%
%ADD13C,0.190500*%
%ADD14C,0.127000*%
%ADD15C,0.158750*%
%ADD16C,0.300000*%
%ADD17C,0.200000*%
G04 APERTURE END LIST*
D10*
D11*
X180871428Y-100371429D02*
X181014285Y-100771429D01*
X181157143Y-100371429D01*
X181700000Y-100771429D02*
X181357143Y-100771429D01*
X181528571Y-100771429D02*
X181528571Y-100171429D01*
X181471428Y-100257143D01*
X181414286Y-100314286D01*
X181357143Y-100342857D01*
X181957143Y-100714286D02*
X181985715Y-100742857D01*
X181957143Y-100771429D01*
X181928572Y-100742857D01*
X181957143Y-100714286D01*
X181957143Y-100771429D01*
X182357143Y-100171429D02*
X182414286Y-100171429D01*
X182471429Y-100200000D01*
X182500000Y-100228571D01*
X182528571Y-100285714D01*
X182557143Y-100400000D01*
X182557143Y-100542857D01*
X182528571Y-100657143D01*
X182500000Y-100714286D01*
X182471429Y-100742857D01*
X182414286Y-100771429D01*
X182357143Y-100771429D01*
X182300000Y-100742857D01*
X182271429Y-100714286D01*
X182242857Y-100657143D01*
X182214286Y-100542857D01*
X182214286Y-100400000D01*
X182242857Y-100285714D01*
X182271429Y-100228571D01*
X182300000Y-100200000D01*
X182357143Y-100171429D01*
D12*
X167712572Y-99921786D02*
X167712572Y-100599119D01*
X167712572Y-100018548D02*
X167760953Y-99970167D01*
X167857715Y-99921786D01*
X168002857Y-99921786D01*
X168099619Y-99970167D01*
X168148000Y-100066929D01*
X168148000Y-100599119D01*
X169212381Y-100599119D02*
X168873715Y-100115310D01*
X168631810Y-100599119D02*
X168631810Y-99583119D01*
X169018857Y-99583119D01*
X169115619Y-99631500D01*
X169164000Y-99679881D01*
X169212381Y-99776643D01*
X169212381Y-99921786D01*
X169164000Y-100018548D01*
X169115619Y-100066929D01*
X169018857Y-100115310D01*
X168631810Y-100115310D01*
X169986476Y-100066929D02*
X169647810Y-100066929D01*
X169647810Y-100599119D02*
X169647810Y-99583119D01*
X170131619Y-99583119D01*
X171002476Y-99583119D02*
X170518667Y-99583119D01*
X170470286Y-100066929D01*
X170518667Y-100018548D01*
X170615429Y-99970167D01*
X170857333Y-99970167D01*
X170954095Y-100018548D01*
X171002476Y-100066929D01*
X171050857Y-100163690D01*
X171050857Y-100405595D01*
X171002476Y-100502357D01*
X170954095Y-100550738D01*
X170857333Y-100599119D01*
X170615429Y-100599119D01*
X170518667Y-100550738D01*
X170470286Y-100502357D01*
X172018476Y-100599119D02*
X171437905Y-100599119D01*
X171728191Y-100599119D02*
X171728191Y-99583119D01*
X171631429Y-99728262D01*
X171534667Y-99825024D01*
X171437905Y-99873405D01*
X172453905Y-100212071D02*
X173228000Y-100212071D01*
X173711810Y-100066929D02*
X174050476Y-100066929D01*
X174195619Y-100599119D02*
X173711810Y-100599119D01*
X173711810Y-99583119D01*
X174195619Y-99583119D01*
X174534286Y-99583119D02*
X175163238Y-99583119D01*
X174824572Y-99970167D01*
X174969714Y-99970167D01*
X175066476Y-100018548D01*
X175114857Y-100066929D01*
X175163238Y-100163690D01*
X175163238Y-100405595D01*
X175114857Y-100502357D01*
X175066476Y-100550738D01*
X174969714Y-100599119D01*
X174679429Y-100599119D01*
X174582667Y-100550738D01*
X174534286Y-100502357D01*
X175598667Y-100212071D02*
X176372762Y-100212071D01*
X177195238Y-100066929D02*
X177340381Y-100115310D01*
X177388762Y-100163690D01*
X177437143Y-100260452D01*
X177437143Y-100405595D01*
X177388762Y-100502357D01*
X177340381Y-100550738D01*
X177243619Y-100599119D01*
X176856572Y-100599119D01*
X176856572Y-99583119D01*
X177195238Y-99583119D01*
X177292000Y-99631500D01*
X177340381Y-99679881D01*
X177388762Y-99776643D01*
X177388762Y-99873405D01*
X177340381Y-99970167D01*
X177292000Y-100018548D01*
X177195238Y-100066929D01*
X176856572Y-100066929D01*
X178066096Y-99583119D02*
X178259619Y-99583119D01*
X178356381Y-99631500D01*
X178453143Y-99728262D01*
X178501524Y-99921786D01*
X178501524Y-100260452D01*
X178453143Y-100453976D01*
X178356381Y-100550738D01*
X178259619Y-100599119D01*
X178066096Y-100599119D01*
X177969334Y-100550738D01*
X177872572Y-100453976D01*
X177824191Y-100260452D01*
X177824191Y-99921786D01*
X177872572Y-99728262D01*
X177969334Y-99631500D01*
X178066096Y-99583119D01*
D13*
X166805429Y-55535286D02*
X166841715Y-55499000D01*
X166914286Y-55462714D01*
X167095715Y-55462714D01*
X167168286Y-55499000D01*
X167204572Y-55535286D01*
X167240857Y-55607857D01*
X167240857Y-55680429D01*
X167204572Y-55789286D01*
X166769143Y-56224714D01*
X167240857Y-56224714D01*
X167494857Y-55462714D02*
X167966571Y-55462714D01*
X167712571Y-55753000D01*
X167821429Y-55753000D01*
X167894000Y-55789286D01*
X167930286Y-55825571D01*
X167966571Y-55898143D01*
X167966571Y-56079571D01*
X167930286Y-56152143D01*
X167894000Y-56188429D01*
X167821429Y-56224714D01*
X167603714Y-56224714D01*
X167531143Y-56188429D01*
X167494857Y-56152143D01*
X165385286Y-98808429D02*
X165494143Y-98844714D01*
X165675572Y-98844714D01*
X165748143Y-98808429D01*
X165784429Y-98772143D01*
X165820714Y-98699571D01*
X165820714Y-98627000D01*
X165784429Y-98554429D01*
X165748143Y-98518143D01*
X165675572Y-98481857D01*
X165530429Y-98445571D01*
X165457857Y-98409286D01*
X165421572Y-98373000D01*
X165385286Y-98300429D01*
X165385286Y-98227857D01*
X165421572Y-98155286D01*
X165457857Y-98119000D01*
X165530429Y-98082714D01*
X165711857Y-98082714D01*
X165820714Y-98119000D01*
X166074714Y-98082714D02*
X166256143Y-98844714D01*
X166401286Y-98300429D01*
X166546428Y-98844714D01*
X166727857Y-98082714D01*
X167018143Y-98844714D02*
X167018143Y-98082714D01*
X167199571Y-98082714D01*
X167308428Y-98119000D01*
X167381000Y-98191571D01*
X167417285Y-98264143D01*
X167453571Y-98409286D01*
X167453571Y-98518143D01*
X167417285Y-98663286D01*
X167381000Y-98735857D01*
X167308428Y-98808429D01*
X167199571Y-98844714D01*
X167018143Y-98844714D01*
X167780143Y-98844714D02*
X167780143Y-98082714D01*
X168288142Y-98082714D02*
X168433285Y-98082714D01*
X168505857Y-98119000D01*
X168578428Y-98191571D01*
X168614714Y-98336714D01*
X168614714Y-98590714D01*
X168578428Y-98735857D01*
X168505857Y-98808429D01*
X168433285Y-98844714D01*
X168288142Y-98844714D01*
X168215571Y-98808429D01*
X168143000Y-98735857D01*
X168106714Y-98590714D01*
X168106714Y-98336714D01*
X168143000Y-98191571D01*
X168215571Y-98119000D01*
X168288142Y-98082714D01*
X165335858Y-96320429D02*
X165444715Y-96356714D01*
X165626144Y-96356714D01*
X165698715Y-96320429D01*
X165735001Y-96284143D01*
X165771286Y-96211571D01*
X165771286Y-96139000D01*
X165735001Y-96066429D01*
X165698715Y-96030143D01*
X165626144Y-95993857D01*
X165481001Y-95957571D01*
X165408429Y-95921286D01*
X165372144Y-95885000D01*
X165335858Y-95812429D01*
X165335858Y-95739857D01*
X165372144Y-95667286D01*
X165408429Y-95631000D01*
X165481001Y-95594714D01*
X165662429Y-95594714D01*
X165771286Y-95631000D01*
X166025286Y-95594714D02*
X166206715Y-96356714D01*
X166351858Y-95812429D01*
X166497000Y-96356714D01*
X166678429Y-95594714D01*
X166968715Y-96356714D02*
X166968715Y-95594714D01*
X167150143Y-95594714D01*
X167259000Y-95631000D01*
X167331572Y-95703571D01*
X167367857Y-95776143D01*
X167404143Y-95921286D01*
X167404143Y-96030143D01*
X167367857Y-96175286D01*
X167331572Y-96247857D01*
X167259000Y-96320429D01*
X167150143Y-96356714D01*
X166968715Y-96356714D01*
X168166143Y-96284143D02*
X168129857Y-96320429D01*
X168021000Y-96356714D01*
X167948429Y-96356714D01*
X167839572Y-96320429D01*
X167767000Y-96247857D01*
X167730715Y-96175286D01*
X167694429Y-96030143D01*
X167694429Y-95921286D01*
X167730715Y-95776143D01*
X167767000Y-95703571D01*
X167839572Y-95631000D01*
X167948429Y-95594714D01*
X168021000Y-95594714D01*
X168129857Y-95631000D01*
X168166143Y-95667286D01*
X168492715Y-96356714D02*
X168492715Y-95594714D01*
X168928143Y-96356714D02*
X168601572Y-95921286D01*
X168928143Y-95594714D02*
X168492715Y-96030143D01*
X180340000Y-98388714D02*
X180594000Y-99150714D01*
X180848000Y-98388714D01*
X181537429Y-99078143D02*
X181501143Y-99114429D01*
X181392286Y-99150714D01*
X181319715Y-99150714D01*
X181210858Y-99114429D01*
X181138286Y-99041857D01*
X181102001Y-98969286D01*
X181065715Y-98824143D01*
X181065715Y-98715286D01*
X181102001Y-98570143D01*
X181138286Y-98497571D01*
X181210858Y-98425000D01*
X181319715Y-98388714D01*
X181392286Y-98388714D01*
X181501143Y-98425000D01*
X181537429Y-98461286D01*
X182299429Y-99078143D02*
X182263143Y-99114429D01*
X182154286Y-99150714D01*
X182081715Y-99150714D01*
X181972858Y-99114429D01*
X181900286Y-99041857D01*
X181864001Y-98969286D01*
X181827715Y-98824143D01*
X181827715Y-98715286D01*
X181864001Y-98570143D01*
X181900286Y-98497571D01*
X181972858Y-98425000D01*
X182081715Y-98388714D01*
X182154286Y-98388714D01*
X182263143Y-98425000D01*
X182299429Y-98461286D01*
X180775428Y-95631000D02*
X180702857Y-95594714D01*
X180594000Y-95594714D01*
X180485143Y-95631000D01*
X180412571Y-95703571D01*
X180376286Y-95776143D01*
X180340000Y-95921286D01*
X180340000Y-96030143D01*
X180376286Y-96175286D01*
X180412571Y-96247857D01*
X180485143Y-96320429D01*
X180594000Y-96356714D01*
X180666571Y-96356714D01*
X180775428Y-96320429D01*
X180811714Y-96284143D01*
X180811714Y-96030143D01*
X180666571Y-96030143D01*
X181138286Y-96356714D02*
X181138286Y-95594714D01*
X181573714Y-96356714D01*
X181573714Y-95594714D01*
X181936572Y-96356714D02*
X181936572Y-95594714D01*
X182118000Y-95594714D01*
X182226857Y-95631000D01*
X182299429Y-95703571D01*
X182335714Y-95776143D01*
X182372000Y-95921286D01*
X182372000Y-96030143D01*
X182335714Y-96175286D01*
X182299429Y-96247857D01*
X182226857Y-96320429D01*
X182118000Y-96356714D01*
X181936572Y-96356714D01*
X180194857Y-91276714D02*
X180267429Y-91276714D01*
X180340000Y-91313000D01*
X180376286Y-91349286D01*
X180412572Y-91421857D01*
X180448857Y-91567000D01*
X180448857Y-91748429D01*
X180412572Y-91893571D01*
X180376286Y-91966143D01*
X180340000Y-92002429D01*
X180267429Y-92038714D01*
X180194857Y-92038714D01*
X180122286Y-92002429D01*
X180086000Y-91966143D01*
X180049715Y-91893571D01*
X180013429Y-91748429D01*
X180013429Y-91567000D01*
X180049715Y-91421857D01*
X180086000Y-91349286D01*
X180122286Y-91313000D01*
X180194857Y-91276714D01*
X181138286Y-91276714D02*
X180775429Y-91276714D01*
X180739143Y-91639571D01*
X180775429Y-91603286D01*
X180848000Y-91567000D01*
X181029429Y-91567000D01*
X181102000Y-91603286D01*
X181138286Y-91639571D01*
X181174571Y-91712143D01*
X181174571Y-91893571D01*
X181138286Y-91966143D01*
X181102000Y-92002429D01*
X181029429Y-92038714D01*
X180848000Y-92038714D01*
X180775429Y-92002429D01*
X180739143Y-91966143D01*
X180194857Y-88482714D02*
X180267429Y-88482714D01*
X180340000Y-88519000D01*
X180376286Y-88555286D01*
X180412572Y-88627857D01*
X180448857Y-88773000D01*
X180448857Y-88954429D01*
X180412572Y-89099571D01*
X180376286Y-89172143D01*
X180340000Y-89208429D01*
X180267429Y-89244714D01*
X180194857Y-89244714D01*
X180122286Y-89208429D01*
X180086000Y-89172143D01*
X180049715Y-89099571D01*
X180013429Y-88954429D01*
X180013429Y-88773000D01*
X180049715Y-88627857D01*
X180086000Y-88555286D01*
X180122286Y-88519000D01*
X180194857Y-88482714D01*
X181102000Y-88482714D02*
X180956857Y-88482714D01*
X180884286Y-88519000D01*
X180848000Y-88555286D01*
X180775429Y-88664143D01*
X180739143Y-88809286D01*
X180739143Y-89099571D01*
X180775429Y-89172143D01*
X180811714Y-89208429D01*
X180884286Y-89244714D01*
X181029429Y-89244714D01*
X181102000Y-89208429D01*
X181138286Y-89172143D01*
X181174571Y-89099571D01*
X181174571Y-88918143D01*
X181138286Y-88845571D01*
X181102000Y-88809286D01*
X181029429Y-88773000D01*
X180884286Y-88773000D01*
X180811714Y-88809286D01*
X180775429Y-88845571D01*
X180739143Y-88918143D01*
X180194857Y-85942714D02*
X180267429Y-85942714D01*
X180340000Y-85979000D01*
X180376286Y-86015286D01*
X180412572Y-86087857D01*
X180448857Y-86233000D01*
X180448857Y-86414429D01*
X180412572Y-86559571D01*
X180376286Y-86632143D01*
X180340000Y-86668429D01*
X180267429Y-86704714D01*
X180194857Y-86704714D01*
X180122286Y-86668429D01*
X180086000Y-86632143D01*
X180049715Y-86559571D01*
X180013429Y-86414429D01*
X180013429Y-86233000D01*
X180049715Y-86087857D01*
X180086000Y-86015286D01*
X180122286Y-85979000D01*
X180194857Y-85942714D01*
X180702857Y-85942714D02*
X181210857Y-85942714D01*
X180884286Y-86704714D01*
X180194857Y-83402714D02*
X180267429Y-83402714D01*
X180340000Y-83439000D01*
X180376286Y-83475286D01*
X180412572Y-83547857D01*
X180448857Y-83693000D01*
X180448857Y-83874429D01*
X180412572Y-84019571D01*
X180376286Y-84092143D01*
X180340000Y-84128429D01*
X180267429Y-84164714D01*
X180194857Y-84164714D01*
X180122286Y-84128429D01*
X180086000Y-84092143D01*
X180049715Y-84019571D01*
X180013429Y-83874429D01*
X180013429Y-83693000D01*
X180049715Y-83547857D01*
X180086000Y-83475286D01*
X180122286Y-83439000D01*
X180194857Y-83402714D01*
X180884286Y-83729286D02*
X180811714Y-83693000D01*
X180775429Y-83656714D01*
X180739143Y-83584143D01*
X180739143Y-83547857D01*
X180775429Y-83475286D01*
X180811714Y-83439000D01*
X180884286Y-83402714D01*
X181029429Y-83402714D01*
X181102000Y-83439000D01*
X181138286Y-83475286D01*
X181174571Y-83547857D01*
X181174571Y-83584143D01*
X181138286Y-83656714D01*
X181102000Y-83693000D01*
X181029429Y-83729286D01*
X180884286Y-83729286D01*
X180811714Y-83765571D01*
X180775429Y-83801857D01*
X180739143Y-83874429D01*
X180739143Y-84019571D01*
X180775429Y-84092143D01*
X180811714Y-84128429D01*
X180884286Y-84164714D01*
X181029429Y-84164714D01*
X181102000Y-84128429D01*
X181138286Y-84092143D01*
X181174571Y-84019571D01*
X181174571Y-83874429D01*
X181138286Y-83801857D01*
X181102000Y-83765571D01*
X181029429Y-83729286D01*
X180194857Y-80862714D02*
X180267429Y-80862714D01*
X180340000Y-80899000D01*
X180376286Y-80935286D01*
X180412572Y-81007857D01*
X180448857Y-81153000D01*
X180448857Y-81334429D01*
X180412572Y-81479571D01*
X180376286Y-81552143D01*
X180340000Y-81588429D01*
X180267429Y-81624714D01*
X180194857Y-81624714D01*
X180122286Y-81588429D01*
X180086000Y-81552143D01*
X180049715Y-81479571D01*
X180013429Y-81334429D01*
X180013429Y-81153000D01*
X180049715Y-81007857D01*
X180086000Y-80935286D01*
X180122286Y-80899000D01*
X180194857Y-80862714D01*
X180811714Y-81624714D02*
X180956857Y-81624714D01*
X181029429Y-81588429D01*
X181065714Y-81552143D01*
X181138286Y-81443286D01*
X181174571Y-81298143D01*
X181174571Y-81007857D01*
X181138286Y-80935286D01*
X181102000Y-80899000D01*
X181029429Y-80862714D01*
X180884286Y-80862714D01*
X180811714Y-80899000D01*
X180775429Y-80935286D01*
X180739143Y-81007857D01*
X180739143Y-81189286D01*
X180775429Y-81261857D01*
X180811714Y-81298143D01*
X180884286Y-81334429D01*
X181029429Y-81334429D01*
X181102000Y-81298143D01*
X181138286Y-81261857D01*
X181174571Y-81189286D01*
X180448857Y-79084714D02*
X180013429Y-79084714D01*
X180231143Y-79084714D02*
X180231143Y-78322714D01*
X180158572Y-78431571D01*
X180086000Y-78504143D01*
X180013429Y-78540429D01*
X180920571Y-78322714D02*
X180993143Y-78322714D01*
X181065714Y-78359000D01*
X181102000Y-78395286D01*
X181138286Y-78467857D01*
X181174571Y-78613000D01*
X181174571Y-78794429D01*
X181138286Y-78939571D01*
X181102000Y-79012143D01*
X181065714Y-79048429D01*
X180993143Y-79084714D01*
X180920571Y-79084714D01*
X180848000Y-79048429D01*
X180811714Y-79012143D01*
X180775429Y-78939571D01*
X180739143Y-78794429D01*
X180739143Y-78613000D01*
X180775429Y-78467857D01*
X180811714Y-78395286D01*
X180848000Y-78359000D01*
X180920571Y-78322714D01*
X180448857Y-76544714D02*
X180013429Y-76544714D01*
X180231143Y-76544714D02*
X180231143Y-75782714D01*
X180158572Y-75891571D01*
X180086000Y-75964143D01*
X180013429Y-76000429D01*
X181174571Y-76544714D02*
X180739143Y-76544714D01*
X180956857Y-76544714D02*
X180956857Y-75782714D01*
X180884286Y-75891571D01*
X180811714Y-75964143D01*
X180739143Y-76000429D01*
X180448857Y-73750714D02*
X180013429Y-73750714D01*
X180231143Y-73750714D02*
X180231143Y-72988714D01*
X180158572Y-73097571D01*
X180086000Y-73170143D01*
X180013429Y-73206429D01*
X180739143Y-73061286D02*
X180775429Y-73025000D01*
X180848000Y-72988714D01*
X181029429Y-72988714D01*
X181102000Y-73025000D01*
X181138286Y-73061286D01*
X181174571Y-73133857D01*
X181174571Y-73206429D01*
X181138286Y-73315286D01*
X180702857Y-73750714D01*
X181174571Y-73750714D01*
X180448857Y-71464714D02*
X180013429Y-71464714D01*
X180231143Y-71464714D02*
X180231143Y-70702714D01*
X180158572Y-70811571D01*
X180086000Y-70884143D01*
X180013429Y-70920429D01*
X180702857Y-70702714D02*
X181174571Y-70702714D01*
X180920571Y-70993000D01*
X181029429Y-70993000D01*
X181102000Y-71029286D01*
X181138286Y-71065571D01*
X181174571Y-71138143D01*
X181174571Y-71319571D01*
X181138286Y-71392143D01*
X181102000Y-71428429D01*
X181029429Y-71464714D01*
X180811714Y-71464714D01*
X180739143Y-71428429D01*
X180702857Y-71392143D01*
X180448857Y-68924714D02*
X180013429Y-68924714D01*
X180231143Y-68924714D02*
X180231143Y-68162714D01*
X180158572Y-68271571D01*
X180086000Y-68344143D01*
X180013429Y-68380429D01*
X181102000Y-68416714D02*
X181102000Y-68924714D01*
X180920571Y-68126429D02*
X180739143Y-68670714D01*
X181210857Y-68670714D01*
X180448857Y-66384714D02*
X180013429Y-66384714D01*
X180231143Y-66384714D02*
X180231143Y-65622714D01*
X180158572Y-65731571D01*
X180086000Y-65804143D01*
X180013429Y-65840429D01*
X181138286Y-65622714D02*
X180775429Y-65622714D01*
X180739143Y-65985571D01*
X180775429Y-65949286D01*
X180848000Y-65913000D01*
X181029429Y-65913000D01*
X181102000Y-65949286D01*
X181138286Y-65985571D01*
X181174571Y-66058143D01*
X181174571Y-66239571D01*
X181138286Y-66312143D01*
X181102000Y-66348429D01*
X181029429Y-66384714D01*
X180848000Y-66384714D01*
X180775429Y-66348429D01*
X180739143Y-66312143D01*
X180448857Y-63844714D02*
X180013429Y-63844714D01*
X180231143Y-63844714D02*
X180231143Y-63082714D01*
X180158572Y-63191571D01*
X180086000Y-63264143D01*
X180013429Y-63300429D01*
X181102000Y-63082714D02*
X180956857Y-63082714D01*
X180884286Y-63119000D01*
X180848000Y-63155286D01*
X180775429Y-63264143D01*
X180739143Y-63409286D01*
X180739143Y-63699571D01*
X180775429Y-63772143D01*
X180811714Y-63808429D01*
X180884286Y-63844714D01*
X181029429Y-63844714D01*
X181102000Y-63808429D01*
X181138286Y-63772143D01*
X181174571Y-63699571D01*
X181174571Y-63518143D01*
X181138286Y-63445571D01*
X181102000Y-63409286D01*
X181029429Y-63373000D01*
X180884286Y-63373000D01*
X180811714Y-63409286D01*
X180775429Y-63445571D01*
X180739143Y-63518143D01*
D14*
X179523572Y-58728429D02*
X179596143Y-58764714D01*
X179717096Y-58764714D01*
X179765477Y-58728429D01*
X179789667Y-58692143D01*
X179813858Y-58619571D01*
X179813858Y-58547000D01*
X179789667Y-58474429D01*
X179765477Y-58438143D01*
X179717096Y-58401857D01*
X179620334Y-58365571D01*
X179571953Y-58329286D01*
X179547762Y-58293000D01*
X179523572Y-58220429D01*
X179523572Y-58147857D01*
X179547762Y-58075286D01*
X179571953Y-58039000D01*
X179620334Y-58002714D01*
X179741286Y-58002714D01*
X179813858Y-58039000D01*
X179983191Y-58002714D02*
X180104144Y-58764714D01*
X180200906Y-58220429D01*
X180297668Y-58764714D01*
X180418620Y-58002714D01*
X180612143Y-58764714D02*
X180612143Y-58002714D01*
X180733096Y-58002714D01*
X180805667Y-58039000D01*
X180854048Y-58111571D01*
X180878239Y-58184143D01*
X180902429Y-58329286D01*
X180902429Y-58438143D01*
X180878239Y-58583286D01*
X180854048Y-58655857D01*
X180805667Y-58728429D01*
X180733096Y-58764714D01*
X180612143Y-58764714D01*
X181410429Y-58692143D02*
X181386239Y-58728429D01*
X181313667Y-58764714D01*
X181265286Y-58764714D01*
X181192715Y-58728429D01*
X181144334Y-58655857D01*
X181120143Y-58583286D01*
X181095953Y-58438143D01*
X181095953Y-58329286D01*
X181120143Y-58184143D01*
X181144334Y-58111571D01*
X181192715Y-58039000D01*
X181265286Y-58002714D01*
X181313667Y-58002714D01*
X181386239Y-58039000D01*
X181410429Y-58075286D01*
X181628143Y-58764714D02*
X181628143Y-58002714D01*
X181918429Y-58764714D02*
X181700715Y-58329286D01*
X181918429Y-58002714D02*
X181628143Y-58438143D01*
D15*
X179248405Y-61268429D02*
X179339120Y-61304714D01*
X179490310Y-61304714D01*
X179550786Y-61268429D01*
X179581024Y-61232143D01*
X179611263Y-61159571D01*
X179611263Y-61087000D01*
X179581024Y-61014429D01*
X179550786Y-60978143D01*
X179490310Y-60941857D01*
X179369358Y-60905571D01*
X179308882Y-60869286D01*
X179278643Y-60833000D01*
X179248405Y-60760429D01*
X179248405Y-60687857D01*
X179278643Y-60615286D01*
X179308882Y-60579000D01*
X179369358Y-60542714D01*
X179520548Y-60542714D01*
X179611263Y-60579000D01*
X179822929Y-60542714D02*
X179974120Y-61304714D01*
X180095072Y-60760429D01*
X180216025Y-61304714D01*
X180367215Y-60542714D01*
X180609119Y-61304714D02*
X180609119Y-60542714D01*
X180760310Y-60542714D01*
X180851024Y-60579000D01*
X180911500Y-60651571D01*
X180941739Y-60724143D01*
X180971977Y-60869286D01*
X180971977Y-60978143D01*
X180941739Y-61123286D01*
X180911500Y-61195857D01*
X180851024Y-61268429D01*
X180760310Y-61304714D01*
X180609119Y-61304714D01*
X181244119Y-61304714D02*
X181244119Y-60542714D01*
X181667453Y-60542714D02*
X181788405Y-60542714D01*
X181848881Y-60579000D01*
X181909358Y-60651571D01*
X181939596Y-60796714D01*
X181939596Y-61050714D01*
X181909358Y-61195857D01*
X181848881Y-61268429D01*
X181788405Y-61304714D01*
X181667453Y-61304714D01*
X181606977Y-61268429D01*
X181546500Y-61195857D01*
X181516262Y-61050714D01*
X181516262Y-60796714D01*
X181546500Y-60651571D01*
X181606977Y-60579000D01*
X181667453Y-60542714D01*
D13*
X180448857Y-53684714D02*
X180013429Y-53684714D01*
X180231143Y-53684714D02*
X180231143Y-52922714D01*
X180158572Y-53031571D01*
X180086000Y-53104143D01*
X180013429Y-53140429D01*
X180884286Y-53249286D02*
X180811714Y-53213000D01*
X180775429Y-53176714D01*
X180739143Y-53104143D01*
X180739143Y-53067857D01*
X180775429Y-52995286D01*
X180811714Y-52959000D01*
X180884286Y-52922714D01*
X181029429Y-52922714D01*
X181102000Y-52959000D01*
X181138286Y-52995286D01*
X181174571Y-53067857D01*
X181174571Y-53104143D01*
X181138286Y-53176714D01*
X181102000Y-53213000D01*
X181029429Y-53249286D01*
X180884286Y-53249286D01*
X180811714Y-53285571D01*
X180775429Y-53321857D01*
X180739143Y-53394429D01*
X180739143Y-53539571D01*
X180775429Y-53612143D01*
X180811714Y-53648429D01*
X180884286Y-53684714D01*
X181029429Y-53684714D01*
X181102000Y-53648429D01*
X181138286Y-53612143D01*
X181174571Y-53539571D01*
X181174571Y-53394429D01*
X181138286Y-53321857D01*
X181102000Y-53285571D01*
X181029429Y-53249286D01*
X180448857Y-56224714D02*
X180013429Y-56224714D01*
X180231143Y-56224714D02*
X180231143Y-55462714D01*
X180158572Y-55571571D01*
X180086000Y-55644143D01*
X180013429Y-55680429D01*
X180702857Y-55462714D02*
X181210857Y-55462714D01*
X180884286Y-56224714D01*
X180013429Y-47915286D02*
X180049715Y-47879000D01*
X180122286Y-47842714D01*
X180303715Y-47842714D01*
X180376286Y-47879000D01*
X180412572Y-47915286D01*
X180448857Y-47987857D01*
X180448857Y-48060429D01*
X180412572Y-48169286D01*
X179977143Y-48604714D01*
X180448857Y-48604714D01*
X180920571Y-47842714D02*
X180993143Y-47842714D01*
X181065714Y-47879000D01*
X181102000Y-47915286D01*
X181138286Y-47987857D01*
X181174571Y-48133000D01*
X181174571Y-48314429D01*
X181138286Y-48459571D01*
X181102000Y-48532143D01*
X181065714Y-48568429D01*
X180993143Y-48604714D01*
X180920571Y-48604714D01*
X180848000Y-48568429D01*
X180811714Y-48532143D01*
X180775429Y-48459571D01*
X180739143Y-48314429D01*
X180739143Y-48133000D01*
X180775429Y-47987857D01*
X180811714Y-47915286D01*
X180848000Y-47879000D01*
X180920571Y-47842714D01*
X180448857Y-51144714D02*
X180013429Y-51144714D01*
X180231143Y-51144714D02*
X180231143Y-50382714D01*
X180158572Y-50491571D01*
X180086000Y-50564143D01*
X180013429Y-50600429D01*
X180811714Y-51144714D02*
X180956857Y-51144714D01*
X181029429Y-51108429D01*
X181065714Y-51072143D01*
X181138286Y-50963286D01*
X181174571Y-50818143D01*
X181174571Y-50527857D01*
X181138286Y-50455286D01*
X181102000Y-50419000D01*
X181029429Y-50382714D01*
X180884286Y-50382714D01*
X180811714Y-50419000D01*
X180775429Y-50455286D01*
X180739143Y-50527857D01*
X180739143Y-50709286D01*
X180775429Y-50781857D01*
X180811714Y-50818143D01*
X180884286Y-50854429D01*
X181029429Y-50854429D01*
X181102000Y-50818143D01*
X181138286Y-50781857D01*
X181174571Y-50709286D01*
X166551428Y-75819000D02*
X166478857Y-75782714D01*
X166370000Y-75782714D01*
X166261143Y-75819000D01*
X166188571Y-75891571D01*
X166152286Y-75964143D01*
X166116000Y-76109286D01*
X166116000Y-76218143D01*
X166152286Y-76363286D01*
X166188571Y-76435857D01*
X166261143Y-76508429D01*
X166370000Y-76544714D01*
X166442571Y-76544714D01*
X166551428Y-76508429D01*
X166587714Y-76472143D01*
X166587714Y-76218143D01*
X166442571Y-76218143D01*
X166914286Y-76544714D02*
X166914286Y-75782714D01*
X167349714Y-76544714D01*
X167349714Y-75782714D01*
X167712572Y-76544714D02*
X167712572Y-75782714D01*
X167894000Y-75782714D01*
X168002857Y-75819000D01*
X168075429Y-75891571D01*
X168111714Y-75964143D01*
X168148000Y-76109286D01*
X168148000Y-76218143D01*
X168111714Y-76363286D01*
X168075429Y-76435857D01*
X168002857Y-76508429D01*
X167894000Y-76544714D01*
X167712572Y-76544714D01*
X166007143Y-73242714D02*
X166478857Y-73242714D01*
X166224857Y-73533000D01*
X166333715Y-73533000D01*
X166406286Y-73569286D01*
X166442572Y-73605571D01*
X166478857Y-73678143D01*
X166478857Y-73859571D01*
X166442572Y-73932143D01*
X166406286Y-73968429D01*
X166333715Y-74004714D01*
X166116000Y-74004714D01*
X166043429Y-73968429D01*
X166007143Y-73932143D01*
X166805429Y-73932143D02*
X166841714Y-73968429D01*
X166805429Y-74004714D01*
X166769143Y-73968429D01*
X166805429Y-73932143D01*
X166805429Y-74004714D01*
X167095714Y-73242714D02*
X167567428Y-73242714D01*
X167313428Y-73533000D01*
X167422286Y-73533000D01*
X167494857Y-73569286D01*
X167531143Y-73605571D01*
X167567428Y-73678143D01*
X167567428Y-73859571D01*
X167531143Y-73932143D01*
X167494857Y-73968429D01*
X167422286Y-74004714D01*
X167204571Y-74004714D01*
X167132000Y-73968429D01*
X167095714Y-73932143D01*
X167785142Y-73242714D02*
X168039142Y-74004714D01*
X168293142Y-73242714D01*
X166551428Y-47879000D02*
X166478857Y-47842714D01*
X166370000Y-47842714D01*
X166261143Y-47879000D01*
X166188571Y-47951571D01*
X166152286Y-48024143D01*
X166116000Y-48169286D01*
X166116000Y-48278143D01*
X166152286Y-48423286D01*
X166188571Y-48495857D01*
X166261143Y-48568429D01*
X166370000Y-48604714D01*
X166442571Y-48604714D01*
X166551428Y-48568429D01*
X166587714Y-48532143D01*
X166587714Y-48278143D01*
X166442571Y-48278143D01*
X166914286Y-48604714D02*
X166914286Y-47842714D01*
X167349714Y-48604714D01*
X167349714Y-47842714D01*
X167712572Y-48604714D02*
X167712572Y-47842714D01*
X167894000Y-47842714D01*
X168002857Y-47879000D01*
X168075429Y-47951571D01*
X168111714Y-48024143D01*
X168148000Y-48169286D01*
X168148000Y-48278143D01*
X168111714Y-48423286D01*
X168075429Y-48495857D01*
X168002857Y-48568429D01*
X167894000Y-48604714D01*
X167712572Y-48604714D01*
X166986857Y-91022714D02*
X167059429Y-91022714D01*
X167132000Y-91059000D01*
X167168286Y-91095286D01*
X167204572Y-91167857D01*
X167240857Y-91313000D01*
X167240857Y-91494429D01*
X167204572Y-91639571D01*
X167168286Y-91712143D01*
X167132000Y-91748429D01*
X167059429Y-91784714D01*
X166986857Y-91784714D01*
X166914286Y-91748429D01*
X166878000Y-91712143D01*
X166841715Y-91639571D01*
X166805429Y-91494429D01*
X166805429Y-91313000D01*
X166841715Y-91167857D01*
X166878000Y-91095286D01*
X166914286Y-91059000D01*
X166986857Y-91022714D01*
X167894000Y-91276714D02*
X167894000Y-91784714D01*
X167712571Y-90986429D02*
X167531143Y-91530714D01*
X168002857Y-91530714D01*
X166986857Y-88482714D02*
X167059429Y-88482714D01*
X167132000Y-88519000D01*
X167168286Y-88555286D01*
X167204572Y-88627857D01*
X167240857Y-88773000D01*
X167240857Y-88954429D01*
X167204572Y-89099571D01*
X167168286Y-89172143D01*
X167132000Y-89208429D01*
X167059429Y-89244714D01*
X166986857Y-89244714D01*
X166914286Y-89208429D01*
X166878000Y-89172143D01*
X166841715Y-89099571D01*
X166805429Y-88954429D01*
X166805429Y-88773000D01*
X166841715Y-88627857D01*
X166878000Y-88555286D01*
X166914286Y-88519000D01*
X166986857Y-88482714D01*
X167494857Y-88482714D02*
X167966571Y-88482714D01*
X167712571Y-88773000D01*
X167821429Y-88773000D01*
X167894000Y-88809286D01*
X167930286Y-88845571D01*
X167966571Y-88918143D01*
X167966571Y-89099571D01*
X167930286Y-89172143D01*
X167894000Y-89208429D01*
X167821429Y-89244714D01*
X167603714Y-89244714D01*
X167531143Y-89208429D01*
X167494857Y-89172143D01*
X166986857Y-85942714D02*
X167059429Y-85942714D01*
X167132000Y-85979000D01*
X167168286Y-86015286D01*
X167204572Y-86087857D01*
X167240857Y-86233000D01*
X167240857Y-86414429D01*
X167204572Y-86559571D01*
X167168286Y-86632143D01*
X167132000Y-86668429D01*
X167059429Y-86704714D01*
X166986857Y-86704714D01*
X166914286Y-86668429D01*
X166878000Y-86632143D01*
X166841715Y-86559571D01*
X166805429Y-86414429D01*
X166805429Y-86233000D01*
X166841715Y-86087857D01*
X166878000Y-86015286D01*
X166914286Y-85979000D01*
X166986857Y-85942714D01*
X167531143Y-86015286D02*
X167567429Y-85979000D01*
X167640000Y-85942714D01*
X167821429Y-85942714D01*
X167894000Y-85979000D01*
X167930286Y-86015286D01*
X167966571Y-86087857D01*
X167966571Y-86160429D01*
X167930286Y-86269286D01*
X167494857Y-86704714D01*
X167966571Y-86704714D01*
X166986857Y-83402714D02*
X167059429Y-83402714D01*
X167132000Y-83439000D01*
X167168286Y-83475286D01*
X167204572Y-83547857D01*
X167240857Y-83693000D01*
X167240857Y-83874429D01*
X167204572Y-84019571D01*
X167168286Y-84092143D01*
X167132000Y-84128429D01*
X167059429Y-84164714D01*
X166986857Y-84164714D01*
X166914286Y-84128429D01*
X166878000Y-84092143D01*
X166841715Y-84019571D01*
X166805429Y-83874429D01*
X166805429Y-83693000D01*
X166841715Y-83547857D01*
X166878000Y-83475286D01*
X166914286Y-83439000D01*
X166986857Y-83402714D01*
X167966571Y-84164714D02*
X167531143Y-84164714D01*
X167748857Y-84164714D02*
X167748857Y-83402714D01*
X167676286Y-83511571D01*
X167603714Y-83584143D01*
X167531143Y-83620429D01*
X166986857Y-80862714D02*
X167059429Y-80862714D01*
X167132000Y-80899000D01*
X167168286Y-80935286D01*
X167204572Y-81007857D01*
X167240857Y-81153000D01*
X167240857Y-81334429D01*
X167204572Y-81479571D01*
X167168286Y-81552143D01*
X167132000Y-81588429D01*
X167059429Y-81624714D01*
X166986857Y-81624714D01*
X166914286Y-81588429D01*
X166878000Y-81552143D01*
X166841715Y-81479571D01*
X166805429Y-81334429D01*
X166805429Y-81153000D01*
X166841715Y-81007857D01*
X166878000Y-80935286D01*
X166914286Y-80899000D01*
X166986857Y-80862714D01*
X167712571Y-80862714D02*
X167785143Y-80862714D01*
X167857714Y-80899000D01*
X167894000Y-80935286D01*
X167930286Y-81007857D01*
X167966571Y-81153000D01*
X167966571Y-81334429D01*
X167930286Y-81479571D01*
X167894000Y-81552143D01*
X167857714Y-81588429D01*
X167785143Y-81624714D01*
X167712571Y-81624714D01*
X167640000Y-81588429D01*
X167603714Y-81552143D01*
X167567429Y-81479571D01*
X167531143Y-81334429D01*
X167531143Y-81153000D01*
X167567429Y-81007857D01*
X167603714Y-80935286D01*
X167640000Y-80899000D01*
X167712571Y-80862714D01*
X166769143Y-78322714D02*
X167240857Y-78322714D01*
X166986857Y-78613000D01*
X167095715Y-78613000D01*
X167168286Y-78649286D01*
X167204572Y-78685571D01*
X167240857Y-78758143D01*
X167240857Y-78939571D01*
X167204572Y-79012143D01*
X167168286Y-79048429D01*
X167095715Y-79084714D01*
X166878000Y-79084714D01*
X166805429Y-79048429D01*
X166769143Y-79012143D01*
X167712571Y-78322714D02*
X167785143Y-78322714D01*
X167857714Y-78359000D01*
X167894000Y-78395286D01*
X167930286Y-78467857D01*
X167966571Y-78613000D01*
X167966571Y-78794429D01*
X167930286Y-78939571D01*
X167894000Y-79012143D01*
X167857714Y-79048429D01*
X167785143Y-79084714D01*
X167712571Y-79084714D01*
X167640000Y-79048429D01*
X167603714Y-79012143D01*
X167567429Y-78939571D01*
X167531143Y-78794429D01*
X167531143Y-78613000D01*
X167567429Y-78467857D01*
X167603714Y-78395286D01*
X167640000Y-78359000D01*
X167712571Y-78322714D01*
X166805429Y-70775286D02*
X166841715Y-70739000D01*
X166914286Y-70702714D01*
X167095715Y-70702714D01*
X167168286Y-70739000D01*
X167204572Y-70775286D01*
X167240857Y-70847857D01*
X167240857Y-70920429D01*
X167204572Y-71029286D01*
X166769143Y-71464714D01*
X167240857Y-71464714D01*
X167603714Y-71464714D02*
X167748857Y-71464714D01*
X167821429Y-71428429D01*
X167857714Y-71392143D01*
X167930286Y-71283286D01*
X167966571Y-71138143D01*
X167966571Y-70847857D01*
X167930286Y-70775286D01*
X167894000Y-70739000D01*
X167821429Y-70702714D01*
X167676286Y-70702714D01*
X167603714Y-70739000D01*
X167567429Y-70775286D01*
X167531143Y-70847857D01*
X167531143Y-71029286D01*
X167567429Y-71101857D01*
X167603714Y-71138143D01*
X167676286Y-71174429D01*
X167821429Y-71174429D01*
X167894000Y-71138143D01*
X167930286Y-71101857D01*
X167966571Y-71029286D01*
X166805429Y-68235286D02*
X166841715Y-68199000D01*
X166914286Y-68162714D01*
X167095715Y-68162714D01*
X167168286Y-68199000D01*
X167204572Y-68235286D01*
X167240857Y-68307857D01*
X167240857Y-68380429D01*
X167204572Y-68489286D01*
X166769143Y-68924714D01*
X167240857Y-68924714D01*
X167676286Y-68489286D02*
X167603714Y-68453000D01*
X167567429Y-68416714D01*
X167531143Y-68344143D01*
X167531143Y-68307857D01*
X167567429Y-68235286D01*
X167603714Y-68199000D01*
X167676286Y-68162714D01*
X167821429Y-68162714D01*
X167894000Y-68199000D01*
X167930286Y-68235286D01*
X167966571Y-68307857D01*
X167966571Y-68344143D01*
X167930286Y-68416714D01*
X167894000Y-68453000D01*
X167821429Y-68489286D01*
X167676286Y-68489286D01*
X167603714Y-68525571D01*
X167567429Y-68561857D01*
X167531143Y-68634429D01*
X167531143Y-68779571D01*
X167567429Y-68852143D01*
X167603714Y-68888429D01*
X167676286Y-68924714D01*
X167821429Y-68924714D01*
X167894000Y-68888429D01*
X167930286Y-68852143D01*
X167966571Y-68779571D01*
X167966571Y-68634429D01*
X167930286Y-68561857D01*
X167894000Y-68525571D01*
X167821429Y-68489286D01*
X166805429Y-65695286D02*
X166841715Y-65659000D01*
X166914286Y-65622714D01*
X167095715Y-65622714D01*
X167168286Y-65659000D01*
X167204572Y-65695286D01*
X167240857Y-65767857D01*
X167240857Y-65840429D01*
X167204572Y-65949286D01*
X166769143Y-66384714D01*
X167240857Y-66384714D01*
X167494857Y-65622714D02*
X168002857Y-65622714D01*
X167676286Y-66384714D01*
X166805429Y-63155286D02*
X166841715Y-63119000D01*
X166914286Y-63082714D01*
X167095715Y-63082714D01*
X167168286Y-63119000D01*
X167204572Y-63155286D01*
X167240857Y-63227857D01*
X167240857Y-63300429D01*
X167204572Y-63409286D01*
X166769143Y-63844714D01*
X167240857Y-63844714D01*
X167894000Y-63082714D02*
X167748857Y-63082714D01*
X167676286Y-63119000D01*
X167640000Y-63155286D01*
X167567429Y-63264143D01*
X167531143Y-63409286D01*
X167531143Y-63699571D01*
X167567429Y-63772143D01*
X167603714Y-63808429D01*
X167676286Y-63844714D01*
X167821429Y-63844714D01*
X167894000Y-63808429D01*
X167930286Y-63772143D01*
X167966571Y-63699571D01*
X167966571Y-63518143D01*
X167930286Y-63445571D01*
X167894000Y-63409286D01*
X167821429Y-63373000D01*
X167676286Y-63373000D01*
X167603714Y-63409286D01*
X167567429Y-63445571D01*
X167531143Y-63518143D01*
X166805429Y-60615286D02*
X166841715Y-60579000D01*
X166914286Y-60542714D01*
X167095715Y-60542714D01*
X167168286Y-60579000D01*
X167204572Y-60615286D01*
X167240857Y-60687857D01*
X167240857Y-60760429D01*
X167204572Y-60869286D01*
X166769143Y-61304714D01*
X167240857Y-61304714D01*
X167930286Y-60542714D02*
X167567429Y-60542714D01*
X167531143Y-60905571D01*
X167567429Y-60869286D01*
X167640000Y-60833000D01*
X167821429Y-60833000D01*
X167894000Y-60869286D01*
X167930286Y-60905571D01*
X167966571Y-60978143D01*
X167966571Y-61159571D01*
X167930286Y-61232143D01*
X167894000Y-61268429D01*
X167821429Y-61304714D01*
X167640000Y-61304714D01*
X167567429Y-61268429D01*
X167531143Y-61232143D01*
X166805429Y-58075286D02*
X166841715Y-58039000D01*
X166914286Y-58002714D01*
X167095715Y-58002714D01*
X167168286Y-58039000D01*
X167204572Y-58075286D01*
X167240857Y-58147857D01*
X167240857Y-58220429D01*
X167204572Y-58329286D01*
X166769143Y-58764714D01*
X167240857Y-58764714D01*
X167894000Y-58256714D02*
X167894000Y-58764714D01*
X167712571Y-57966429D02*
X167531143Y-58510714D01*
X168002857Y-58510714D01*
X166805429Y-52995286D02*
X166841715Y-52959000D01*
X166914286Y-52922714D01*
X167095715Y-52922714D01*
X167168286Y-52959000D01*
X167204572Y-52995286D01*
X167240857Y-53067857D01*
X167240857Y-53140429D01*
X167204572Y-53249286D01*
X166769143Y-53684714D01*
X167240857Y-53684714D01*
X167531143Y-52995286D02*
X167567429Y-52959000D01*
X167640000Y-52922714D01*
X167821429Y-52922714D01*
X167894000Y-52959000D01*
X167930286Y-52995286D01*
X167966571Y-53067857D01*
X167966571Y-53140429D01*
X167930286Y-53249286D01*
X167494857Y-53684714D01*
X167966571Y-53684714D01*
D11*
X161814286Y-67742857D02*
X161900000Y-67771429D01*
X162042857Y-67771429D01*
X162100000Y-67742857D01*
X162128571Y-67714286D01*
X162157143Y-67657143D01*
X162157143Y-67600000D01*
X162128571Y-67542857D01*
X162100000Y-67514286D01*
X162042857Y-67485714D01*
X161928571Y-67457143D01*
X161871429Y-67428571D01*
X161842857Y-67400000D01*
X161814286Y-67342857D01*
X161814286Y-67285714D01*
X161842857Y-67228571D01*
X161871429Y-67200000D01*
X161928571Y-67171429D01*
X162071429Y-67171429D01*
X162157143Y-67200000D01*
X162328572Y-67171429D02*
X162671429Y-67171429D01*
X162500000Y-67771429D02*
X162500000Y-67171429D01*
X162842858Y-67742857D02*
X162928572Y-67771429D01*
X163071429Y-67771429D01*
X163128572Y-67742857D01*
X163157143Y-67714286D01*
X163185715Y-67657143D01*
X163185715Y-67600000D01*
X163157143Y-67542857D01*
X163128572Y-67514286D01*
X163071429Y-67485714D01*
X162957143Y-67457143D01*
X162900001Y-67428571D01*
X162871429Y-67400000D01*
X162842858Y-67342857D01*
X162842858Y-67285714D01*
X162871429Y-67228571D01*
X162900001Y-67200000D01*
X162957143Y-67171429D01*
X163100001Y-67171429D01*
X163185715Y-67200000D01*
D13*
X166805429Y-50455286D02*
X166841715Y-50419000D01*
X166914286Y-50382714D01*
X167095715Y-50382714D01*
X167168286Y-50419000D01*
X167204572Y-50455286D01*
X167240857Y-50527857D01*
X167240857Y-50600429D01*
X167204572Y-50709286D01*
X166769143Y-51144714D01*
X167240857Y-51144714D01*
X167966571Y-51144714D02*
X167531143Y-51144714D01*
X167748857Y-51144714D02*
X167748857Y-50382714D01*
X167676286Y-50491571D01*
X167603714Y-50564143D01*
X167531143Y-50600429D01*
D10*
X161790000Y-46510000D02*
X161490000Y-46510000D01*
D16*
X161490000Y-47810000D02*
X161490000Y-46610000D01*
D10*
X186290000Y-46510000D02*
X186490000Y-46510000D01*
D16*
X186490000Y-47810000D02*
X186490000Y-46610000D01*
D10*
X161590000Y-46510000D02*
X186290000Y-46510000D01*
X182190000Y-65710000D02*
X182190000Y-65810000D01*
D17*
X186490000Y-65910000D02*
X182190000Y-65910000D01*
D10*
X165790000Y-65710000D02*
X165790000Y-65910000D01*
D17*
X161490000Y-65910000D02*
X165790000Y-65910000D01*
D10*
X182190000Y-47510000D02*
X182190000Y-47410000D01*
X182190000Y-47410000D02*
X186390000Y-47410000D01*
X161690000Y-47310000D02*
X165790000Y-47310000D01*
X165790000Y-47310000D02*
X165790000Y-65710000D01*
X182190000Y-47510000D02*
X182190000Y-65710000D01*
D16*
X186490000Y-65810000D02*
X186490000Y-47810000D01*
X161490000Y-65810000D02*
X161490000Y-47810000D01*
D11*
X163392000Y-67837000D02*
X163392000Y-67037000D01*
X163833421Y-68037000D02*
G75*
G03X163833421Y-68037000I-141421J0D01*
G01*
X164142420Y-67886580D02*
X164142420Y-66987420D01*
X164142420Y-66987420D02*
X163743640Y-66987420D01*
X163743640Y-67886580D02*
X163743640Y-66987420D01*
X164142420Y-67886580D02*
X163743640Y-67886580D01*
X165440360Y-67886580D02*
X165440360Y-66987420D01*
X165440360Y-66987420D02*
X165041580Y-66987420D01*
X165041580Y-67886580D02*
X165041580Y-66987420D01*
X165440360Y-67886580D02*
X165041580Y-67886580D01*
X164592000Y-67886580D02*
X164592000Y-67736720D01*
X164592000Y-67736720D02*
X164292280Y-67736720D01*
X164292280Y-67886580D02*
X164292280Y-67736720D01*
X164592000Y-67886580D02*
X164292280Y-67886580D01*
X164592000Y-67137280D02*
X164592000Y-66987420D01*
X164592000Y-66987420D02*
X164292280Y-66987420D01*
X164292280Y-67137280D02*
X164292280Y-66987420D01*
X164592000Y-67137280D02*
X164292280Y-67137280D01*
X164592000Y-67586860D02*
X164592000Y-67287140D01*
X164592000Y-67287140D02*
X164292280Y-67287140D01*
X164292280Y-67586860D02*
X164292280Y-67287140D01*
X164592000Y-67586860D02*
X164292280Y-67586860D01*
X164142420Y-67835780D02*
X165041580Y-67835780D01*
X164142420Y-67038220D02*
X165041580Y-67038220D01*
X171450000Y-49530000D02*
X171450000Y-92710000D01*
X171450000Y-92710000D02*
X168910000Y-92710000D01*
X168910000Y-92710000D02*
X168910000Y-49530000D01*
X171730000Y-46710000D02*
X171730000Y-48260000D01*
X171450000Y-49530000D02*
X168910000Y-49530000D01*
X168630000Y-48260000D02*
X168630000Y-46710000D01*
X168630000Y-46710000D02*
X171730000Y-46710000D01*
X165100000Y-73660000D02*
X165100000Y-91440000D01*
X165100000Y-91440000D02*
X162560000Y-91440000D01*
X162560000Y-91440000D02*
X162560000Y-73660000D01*
X165380000Y-70840000D02*
X165380000Y-72390000D01*
X165100000Y-73660000D02*
X162560000Y-73660000D01*
X162280000Y-72390000D02*
X162280000Y-70840000D01*
X162280000Y-70840000D02*
X165380000Y-70840000D01*
X179070000Y-49530000D02*
X179070000Y-92710000D01*
X179070000Y-92710000D02*
X176530000Y-92710000D01*
X176530000Y-92710000D02*
X176530000Y-49530000D01*
X179350000Y-46710000D02*
X179350000Y-48260000D01*
X179070000Y-49530000D02*
X176530000Y-49530000D01*
X176250000Y-48260000D02*
X176250000Y-46710000D01*
X176250000Y-46710000D02*
X179350000Y-46710000D01*
X185420000Y-73660000D02*
X185420000Y-91440000D01*
X185420000Y-91440000D02*
X182880000Y-91440000D01*
X182880000Y-91440000D02*
X182880000Y-73660000D01*
X185700000Y-70840000D02*
X185700000Y-72390000D01*
X185420000Y-73660000D02*
X182880000Y-73660000D01*
X182600000Y-72390000D02*
X182600000Y-70840000D01*
X182600000Y-70840000D02*
X185700000Y-70840000D01*
X164457000Y-70017000D02*
X163457000Y-70017000D01*
X163457000Y-68667000D02*
X164457000Y-68667000D01*
X185770000Y-97270000D02*
X185770000Y-99810000D01*
X186050000Y-94450000D02*
X186050000Y-96000000D01*
X185770000Y-97270000D02*
X183230000Y-97270000D01*
X182950000Y-96000000D02*
X182950000Y-94450000D01*
X182950000Y-94450000D02*
X186050000Y-94450000D01*
X183230000Y-97270000D02*
X183230000Y-99810000D01*
X183230000Y-99810000D02*
X185770000Y-99810000D01*
X164770000Y-97270000D02*
X164770000Y-99810000D01*
X165050000Y-94450000D02*
X165050000Y-96000000D01*
X164770000Y-97270000D02*
X162230000Y-97270000D01*
X161950000Y-96000000D02*
X161950000Y-94450000D01*
X161950000Y-94450000D02*
X165050000Y-94450000D01*
X162230000Y-97270000D02*
X162230000Y-99810000D01*
X162230000Y-99810000D02*
X164770000Y-99810000D01*
X164047543Y-66717829D02*
X164047543Y-66117829D01*
X164190400Y-66117829D01*
X164276115Y-66146400D01*
X164333257Y-66203543D01*
X164361829Y-66260686D01*
X164390400Y-66374971D01*
X164390400Y-66460686D01*
X164361829Y-66574971D01*
X164333257Y-66632114D01*
X164276115Y-66689257D01*
X164190400Y-66717829D01*
X164047543Y-66717829D01*
X164961829Y-66717829D02*
X164618972Y-66717829D01*
X164790400Y-66717829D02*
X164790400Y-66117829D01*
X164733257Y-66203543D01*
X164676115Y-66260686D01*
X164618972Y-66289257D01*
X163876567Y-69629262D02*
X163664900Y-69326881D01*
X163513709Y-69629262D02*
X163513709Y-68994262D01*
X163755614Y-68994262D01*
X163816090Y-69024500D01*
X163846329Y-69054738D01*
X163876567Y-69115214D01*
X163876567Y-69205929D01*
X163846329Y-69266405D01*
X163816090Y-69296643D01*
X163755614Y-69326881D01*
X163513709Y-69326881D01*
X164481329Y-69629262D02*
X164118471Y-69629262D01*
X164299900Y-69629262D02*
X164299900Y-68994262D01*
X164239424Y-69084976D01*
X164178948Y-69145452D01*
X164118471Y-69175690D01*
M02*
