G04 #@! TF.FileFunction,Copper,L2,Bot,Signal*
%FSLAX46Y46*%
G04 Gerber Fmt 4.6, Leading zero omitted, Abs format (unit mm)*
G04 Created by KiCad (PCBNEW 4.0.5+dfsg1-4~bpo8+1) date Sat Jun 24 18:36:41 2017*
%MOMM*%
%LPD*%
G01*
G04 APERTURE LIST*
%ADD10C,0.100000*%
%ADD11C,1.300480*%
%ADD12O,2.200000X5.000000*%
%ADD13R,2.032000X3.657600*%
%ADD14R,2.032000X1.016000*%
%ADD15R,2.032000X1.727200*%
%ADD16O,2.032000X1.727200*%
%ADD17R,1.600000X2.000000*%
%ADD18R,0.750000X1.200000*%
%ADD19R,2.032000X2.032000*%
%ADD20O,2.032000X2.032000*%
%ADD21C,1.000000*%
%ADD22C,0.381000*%
%ADD23C,0.508000*%
%ADD24C,0.304800*%
%ADD25C,0.254000*%
G04 APERTURE END LIST*
D10*
D11*
X162990000Y-48310000D03*
X164990000Y-48310000D03*
X162990000Y-50310000D03*
X164990000Y-50310000D03*
X162990000Y-52310000D03*
X164990000Y-52310000D03*
X162990000Y-54310000D03*
X164990000Y-54310000D03*
X162990000Y-56310000D03*
X164990000Y-56310000D03*
X162990000Y-58310000D03*
X164990000Y-58310000D03*
X162990000Y-60310000D03*
X164990000Y-60310000D03*
X162990000Y-62310000D03*
X164990000Y-62310000D03*
X162990000Y-64310000D03*
X164990000Y-64310000D03*
X184990000Y-64310000D03*
X182990000Y-64310000D03*
X184990000Y-62310000D03*
X182990000Y-62310000D03*
X184990000Y-60310000D03*
X182990000Y-60310000D03*
X184990000Y-58310000D03*
X182990000Y-58310000D03*
X184990000Y-56310000D03*
X182990000Y-56310000D03*
X184990000Y-54310000D03*
X182990000Y-54310000D03*
X184990000Y-52310000D03*
X182990000Y-52310000D03*
X184990000Y-50310000D03*
X182990000Y-50310000D03*
X184990000Y-48310000D03*
X182990000Y-48310000D03*
D12*
X174000000Y-86000000D03*
X174000000Y-60500000D03*
D13*
X169672000Y-97282000D03*
D14*
X176276000Y-97282000D03*
X176276000Y-99568000D03*
X176276000Y-94996000D03*
D15*
X170180000Y-48260000D03*
D16*
X170180000Y-50800000D03*
X170180000Y-53340000D03*
X170180000Y-55880000D03*
X170180000Y-58420000D03*
X170180000Y-60960000D03*
X170180000Y-63500000D03*
X170180000Y-66040000D03*
X170180000Y-68580000D03*
X170180000Y-71120000D03*
X170180000Y-73660000D03*
X170180000Y-76200000D03*
X170180000Y-78740000D03*
X170180000Y-81280000D03*
X170180000Y-83820000D03*
X170180000Y-86360000D03*
X170180000Y-88900000D03*
X170180000Y-91440000D03*
D15*
X163830000Y-72390000D03*
D16*
X163830000Y-74930000D03*
X163830000Y-77470000D03*
X163830000Y-80010000D03*
X163830000Y-82550000D03*
X163830000Y-85090000D03*
X163830000Y-87630000D03*
X163830000Y-90170000D03*
D15*
X177800000Y-48260000D03*
D16*
X177800000Y-50800000D03*
X177800000Y-53340000D03*
X177800000Y-55880000D03*
X177800000Y-58420000D03*
X177800000Y-60960000D03*
X177800000Y-63500000D03*
X177800000Y-66040000D03*
X177800000Y-68580000D03*
X177800000Y-71120000D03*
X177800000Y-73660000D03*
X177800000Y-76200000D03*
X177800000Y-78740000D03*
X177800000Y-81280000D03*
X177800000Y-83820000D03*
X177800000Y-86360000D03*
X177800000Y-88900000D03*
X177800000Y-91440000D03*
D15*
X184150000Y-72390000D03*
D16*
X184150000Y-74930000D03*
X184150000Y-77470000D03*
X184150000Y-80010000D03*
X184150000Y-82550000D03*
X184150000Y-85090000D03*
X184150000Y-87630000D03*
X184150000Y-90170000D03*
D17*
X179832000Y-99155000D03*
X179832000Y-95155000D03*
D18*
X166497000Y-98105000D03*
X166497000Y-96205000D03*
D19*
X184500000Y-96000000D03*
D20*
X184500000Y-98540000D03*
D19*
X163500000Y-96000000D03*
D20*
X163500000Y-98540000D03*
D21*
X162610800Y-66497200D03*
X174345600Y-69240400D03*
X174904400Y-64109600D03*
X172364400Y-95453200D03*
D22*
X167894000Y-48260000D02*
X166370000Y-46736000D01*
X166370000Y-46736000D02*
X163830000Y-46736000D01*
X163830000Y-46736000D02*
X162990000Y-47576000D01*
X162990000Y-47576000D02*
X162990000Y-48310000D01*
X170180000Y-48260000D02*
X167894000Y-48260000D01*
D23*
X182563200Y-96000000D02*
X181718200Y-95155000D01*
X181718200Y-95155000D02*
X179832000Y-95155000D01*
X184500000Y-96000000D02*
X182563200Y-96000000D01*
X179673000Y-94996000D02*
X179832000Y-95155000D01*
X176276000Y-94996000D02*
X179673000Y-94996000D01*
X172923200Y-93980000D02*
X175260000Y-93980000D01*
X175260000Y-93980000D02*
X176276000Y-94996000D01*
X167690800Y-93980000D02*
X172923200Y-93980000D01*
X166497000Y-95173800D02*
X167690800Y-93980000D01*
X166497000Y-96205000D02*
X166497000Y-95173800D01*
X171348400Y-76200000D02*
X172059600Y-76911200D01*
X172059600Y-76911200D02*
X172059600Y-93116400D01*
X172059600Y-93116400D02*
X172923200Y-93980000D01*
X170180000Y-76200000D02*
X171348400Y-76200000D01*
D24*
X162154400Y-48310000D02*
X162990000Y-48310000D01*
X161594800Y-48869600D02*
X162154400Y-48310000D01*
X161594800Y-59690000D02*
X161594800Y-48869600D01*
X161594800Y-65481200D02*
X161594800Y-59690000D01*
X162610800Y-66497200D02*
X161594800Y-65481200D01*
D25*
X164134800Y-59283600D02*
X162001200Y-59283600D01*
X162001200Y-59283600D02*
X161594800Y-59690000D01*
X164990000Y-58428400D02*
X164134800Y-59283600D01*
X164990000Y-58310000D02*
X164990000Y-58428400D01*
X164024000Y-49276000D02*
X162990000Y-50310000D01*
X165989000Y-49276000D02*
X164024000Y-49276000D01*
X170053000Y-53340000D02*
X165989000Y-49276000D01*
X170180000Y-53340000D02*
X170053000Y-53340000D01*
X165435500Y-50310000D02*
X164990000Y-50310000D01*
X167830500Y-51943000D02*
X166197500Y-50310000D01*
X167957500Y-52070000D02*
X167830500Y-51943000D01*
X166197500Y-50310000D02*
X164990000Y-50310000D01*
X168719500Y-55181500D02*
X168719500Y-52832000D01*
X168719500Y-52832000D02*
X167830500Y-51943000D01*
X169418000Y-55880000D02*
X168719500Y-55181500D01*
X170180000Y-55880000D02*
X169418000Y-55880000D01*
X162990000Y-52148000D02*
X162990000Y-52310000D01*
X163830000Y-51308000D02*
X162990000Y-52148000D01*
X166243000Y-51308000D02*
X163830000Y-51308000D01*
X168211500Y-53276500D02*
X166243000Y-51308000D01*
X168211500Y-57340500D02*
X168211500Y-53276500D01*
X169291000Y-58420000D02*
X168211500Y-57340500D01*
X170180000Y-58420000D02*
X169291000Y-58420000D01*
X166419500Y-52310000D02*
X164990000Y-52310000D01*
X167767000Y-53657500D02*
X166419500Y-52310000D01*
X167767000Y-57835800D02*
X167767000Y-53657500D01*
X170180000Y-60960000D02*
X169672000Y-60960000D01*
X168503600Y-59486800D02*
X168503600Y-58572400D01*
X168503600Y-58572400D02*
X167767000Y-57835800D01*
X169976800Y-60960000D02*
X168503600Y-59486800D01*
X170180000Y-60960000D02*
X169976800Y-60960000D01*
X162990000Y-54053000D02*
X162990000Y-54310000D01*
X163766500Y-53276500D02*
X162990000Y-54053000D01*
X166116000Y-53276500D02*
X163766500Y-53276500D01*
X167259000Y-54419500D02*
X166116000Y-53276500D01*
X167259000Y-58902600D02*
X167259000Y-54419500D01*
X170180000Y-63500000D02*
X169354500Y-63500000D01*
X168402000Y-62331600D02*
X168402000Y-60045600D01*
X168402000Y-60045600D02*
X167259000Y-58902600D01*
X169570400Y-63500000D02*
X168402000Y-62331600D01*
X170180000Y-63500000D02*
X169570400Y-63500000D01*
X165879500Y-54310000D02*
X164990000Y-54310000D01*
X166789094Y-55219594D02*
X165879500Y-54310000D01*
X166789094Y-59245494D02*
X166789094Y-55219594D01*
X170180000Y-66040000D02*
X169799000Y-66040000D01*
X168351200Y-64262000D02*
X168351200Y-62992000D01*
X168351200Y-62992000D02*
X167944800Y-62585600D01*
X167944800Y-62585600D02*
X167944800Y-60401200D01*
X167944800Y-60401200D02*
X166789094Y-59245494D01*
X170129200Y-66040000D02*
X168351200Y-64262000D01*
X170180000Y-66040000D02*
X170129200Y-66040000D01*
X163991500Y-55308500D02*
X162990000Y-56310000D01*
X165608000Y-55308500D02*
X163991500Y-55308500D01*
X166357292Y-56057792D02*
X165608000Y-55308500D01*
X166357292Y-59880492D02*
X166357292Y-56057792D01*
X170180000Y-68580000D02*
X170180000Y-68453000D01*
X168503600Y-67564000D02*
X168503600Y-65176400D01*
X168503600Y-65176400D02*
X167843200Y-64516000D01*
X167843200Y-64516000D02*
X167843200Y-63296800D01*
X167843200Y-63296800D02*
X167386000Y-62839600D01*
X167386000Y-62839600D02*
X167386000Y-60909200D01*
X167386000Y-60909200D02*
X166357292Y-59880492D01*
X169519600Y-68580000D02*
X168503600Y-67564000D01*
X170180000Y-68580000D02*
X169519600Y-68580000D01*
X164003200Y-63296800D02*
X162990000Y-64310000D01*
X165760400Y-63296800D02*
X164003200Y-63296800D01*
X167944800Y-65481200D02*
X165760400Y-63296800D01*
X167944800Y-68072000D02*
X167944800Y-65481200D01*
X168249600Y-68376800D02*
X167944800Y-68072000D01*
X168249600Y-87731600D02*
X168249600Y-68376800D01*
X169418000Y-88900000D02*
X168249600Y-87731600D01*
X170180000Y-88900000D02*
X169418000Y-88900000D01*
X166928800Y-66248800D02*
X164990000Y-64310000D01*
X166928800Y-67818000D02*
X166928800Y-66248800D01*
X167589200Y-68478400D02*
X166928800Y-67818000D01*
X167589200Y-89052400D02*
X167589200Y-68478400D01*
X169976800Y-91440000D02*
X167589200Y-89052400D01*
X170180000Y-91440000D02*
X169976800Y-91440000D01*
X184990000Y-47525200D02*
X184990000Y-48310000D01*
X184353200Y-46888400D02*
X184990000Y-47525200D01*
X180136800Y-46888400D02*
X184353200Y-46888400D01*
X178765200Y-48260000D02*
X180136800Y-46888400D01*
X177800000Y-48260000D02*
X178765200Y-48260000D01*
X180022500Y-50800000D02*
X181546500Y-49276000D01*
X181546500Y-49276000D02*
X183956000Y-49276000D01*
X183956000Y-49276000D02*
X184990000Y-50310000D01*
X177800000Y-50800000D02*
X180022500Y-50800000D01*
X182404800Y-50310000D02*
X182990000Y-50310000D01*
X179425600Y-53289200D02*
X182404800Y-50310000D01*
X179425600Y-54610000D02*
X179425600Y-53289200D01*
X178155600Y-55880000D02*
X179425600Y-54610000D01*
X177800000Y-55880000D02*
X178155600Y-55880000D01*
X183988000Y-51308000D02*
X184990000Y-52310000D01*
X182219600Y-51308000D02*
X183988000Y-51308000D01*
X179857402Y-53670198D02*
X182219600Y-51308000D01*
X179857402Y-56768998D02*
X179857402Y-53670198D01*
X178206400Y-58420000D02*
X179857402Y-56768998D01*
X177800000Y-58420000D02*
X178206400Y-58420000D01*
D24*
X174345600Y-65735200D02*
X172212000Y-63601600D01*
X172212000Y-63601600D02*
X172212000Y-57505600D01*
X172212000Y-57505600D02*
X172770800Y-56946800D01*
X172770800Y-56946800D02*
X176326800Y-56946800D01*
X176326800Y-56946800D02*
X177800000Y-58420000D01*
X174345600Y-69240400D02*
X174345600Y-65735200D01*
D25*
X182081200Y-52310000D02*
X182990000Y-52310000D01*
X180543200Y-53848000D02*
X182081200Y-52310000D01*
X179527200Y-57912000D02*
X180314600Y-57124600D01*
X179527200Y-59537600D02*
X179527200Y-57912000D01*
X178104800Y-60960000D02*
X179527200Y-59537600D01*
X177800000Y-60960000D02*
X178104800Y-60960000D01*
X180314600Y-54076600D02*
X180543200Y-53848000D01*
X180314600Y-57124600D02*
X180314600Y-54076600D01*
D24*
X176834800Y-60960000D02*
X177800000Y-60960000D01*
X174904400Y-64109600D02*
X175768000Y-63246000D01*
X175768000Y-63246000D02*
X175768000Y-62026800D01*
X175768000Y-62026800D02*
X176834800Y-60960000D01*
D25*
X183969200Y-53289200D02*
X184990000Y-54310000D01*
X181813200Y-53289200D02*
X183969200Y-53289200D01*
X180898800Y-54203600D02*
X181813200Y-53289200D01*
X179959002Y-58242198D02*
X180797200Y-57404000D01*
X179959002Y-59918598D02*
X179959002Y-58242198D01*
X177800000Y-63500000D02*
X178358800Y-63500000D01*
X180797200Y-54305200D02*
X180898800Y-54203600D01*
X180797200Y-57404000D02*
X180797200Y-54305200D01*
X179578000Y-62382400D02*
X179578000Y-60299600D01*
X179578000Y-60299600D02*
X179959002Y-59918598D01*
X178460400Y-63500000D02*
X179578000Y-62382400D01*
X177800000Y-63500000D02*
X178460400Y-63500000D01*
X181808400Y-54310000D02*
X182990000Y-54310000D01*
X181229002Y-54889398D02*
X181808400Y-54310000D01*
X181229002Y-57582858D02*
X181229002Y-54889398D01*
X180390804Y-58421056D02*
X181229002Y-57582858D01*
X180390804Y-60350396D02*
X180390804Y-58421056D01*
X177800000Y-66040000D02*
X178054000Y-66040000D01*
X179425600Y-64973200D02*
X179425600Y-63296800D01*
X179425600Y-63296800D02*
X180136800Y-62585600D01*
X180136800Y-62585600D02*
X180136800Y-60604400D01*
X180136800Y-60604400D02*
X180390804Y-60350396D01*
X178358800Y-66040000D02*
X179425600Y-64973200D01*
X177800000Y-66040000D02*
X178358800Y-66040000D01*
X184001200Y-55321200D02*
X184990000Y-56310000D01*
X182270400Y-55321200D02*
X184001200Y-55321200D01*
X181660804Y-55930796D02*
X182270400Y-55321200D01*
X181660804Y-57810396D02*
X181660804Y-55930796D01*
X180822606Y-58648594D02*
X181660804Y-57810396D01*
X180822606Y-62560194D02*
X180822606Y-58648594D01*
X179578000Y-67564000D02*
X179578000Y-65532000D01*
X179578000Y-65532000D02*
X179933600Y-65176400D01*
X179933600Y-65176400D02*
X179933600Y-63449200D01*
X179933600Y-63449200D02*
X180822606Y-62560194D01*
X178562000Y-68580000D02*
X179578000Y-67564000D01*
X177800000Y-68580000D02*
X178562000Y-68580000D01*
X179171600Y-88900000D02*
X179578000Y-88493600D01*
X179578000Y-88493600D02*
X179578000Y-68783200D01*
X179578000Y-68783200D02*
X180086000Y-68275200D01*
X180086000Y-68275200D02*
X180086000Y-65786000D01*
X180086000Y-65786000D02*
X180492400Y-65379600D01*
X180492400Y-65379600D02*
X180492400Y-64109600D01*
X180492400Y-64109600D02*
X181305200Y-63296800D01*
X181305200Y-63296800D02*
X183976800Y-63296800D01*
X183976800Y-63296800D02*
X184990000Y-64310000D01*
X177800000Y-88900000D02*
X179171600Y-88900000D01*
X179019200Y-91440000D02*
X180340000Y-90119200D01*
X180340000Y-90119200D02*
X180340000Y-69037200D01*
X180340000Y-69037200D02*
X181051200Y-68326000D01*
X181051200Y-68326000D02*
X181051200Y-65176400D01*
X181051200Y-65176400D02*
X181917600Y-64310000D01*
X181917600Y-64310000D02*
X182990000Y-64310000D01*
X177800000Y-91440000D02*
X179019200Y-91440000D01*
D23*
X183885000Y-99155000D02*
X184500000Y-98540000D01*
X179832000Y-99155000D02*
X183885000Y-99155000D01*
X179419000Y-99568000D02*
X179832000Y-99155000D01*
X176276000Y-99568000D02*
X179419000Y-99568000D01*
X176276000Y-97282000D02*
X169672000Y-97282000D01*
X168849000Y-98105000D02*
X169672000Y-97282000D01*
X166497000Y-98105000D02*
X168849000Y-98105000D01*
X170535600Y-97282000D02*
X172364400Y-95453200D01*
X169672000Y-97282000D02*
X170535600Y-97282000D01*
D22*
X168910000Y-50800000D02*
X166420000Y-48310000D01*
X166420000Y-48310000D02*
X164990000Y-48310000D01*
X170180000Y-50800000D02*
X168910000Y-50800000D01*
D25*
G36*
X165183747Y-58324142D02*
X165004142Y-58503747D01*
X164990000Y-58489605D01*
X164270416Y-59209189D01*
X164272064Y-59216013D01*
X164262921Y-59219792D01*
X163989840Y-59492395D01*
X163807604Y-59309840D01*
X164078938Y-59038980D01*
X164083566Y-59027833D01*
X164090811Y-59029584D01*
X164810395Y-58310000D01*
X164090811Y-57590416D01*
X164083986Y-57592064D01*
X164080208Y-57582921D01*
X163807604Y-57309840D01*
X163990159Y-57127604D01*
X164261020Y-57398938D01*
X164272166Y-57403566D01*
X164270416Y-57410811D01*
X164990000Y-58130395D01*
X165004142Y-58116252D01*
X165183747Y-58295857D01*
X165169605Y-58310000D01*
X165183747Y-58324142D01*
X165183747Y-58324142D01*
G37*
X165183747Y-58324142D02*
X165004142Y-58503747D01*
X164990000Y-58489605D01*
X164270416Y-59209189D01*
X164272064Y-59216013D01*
X164262921Y-59219792D01*
X163989840Y-59492395D01*
X163807604Y-59309840D01*
X164078938Y-59038980D01*
X164083566Y-59027833D01*
X164090811Y-59029584D01*
X164810395Y-58310000D01*
X164090811Y-57590416D01*
X164083986Y-57592064D01*
X164080208Y-57582921D01*
X163807604Y-57309840D01*
X163990159Y-57127604D01*
X164261020Y-57398938D01*
X164272166Y-57403566D01*
X164270416Y-57410811D01*
X164990000Y-58130395D01*
X165004142Y-58116252D01*
X165183747Y-58295857D01*
X165169605Y-58310000D01*
X165183747Y-58324142D01*
G36*
X186315000Y-98932532D02*
X186183345Y-99594403D01*
X186183345Y-98540000D01*
X186057670Y-97908190D01*
X185833034Y-97571998D01*
X185875698Y-97554327D01*
X186054327Y-97375699D01*
X186151000Y-97142310D01*
X186151000Y-96889691D01*
X186151000Y-96285750D01*
X186151000Y-95714250D01*
X186151000Y-95110309D01*
X186151000Y-94857690D01*
X186054327Y-94624301D01*
X185875698Y-94445673D01*
X185833345Y-94428129D01*
X185833345Y-90170000D01*
X185719271Y-89596511D01*
X185394415Y-89110330D01*
X185079634Y-88899999D01*
X185394415Y-88689670D01*
X185719271Y-88203489D01*
X185833345Y-87630000D01*
X185719271Y-87056511D01*
X185394415Y-86570330D01*
X185079634Y-86360000D01*
X185394415Y-86149670D01*
X185719271Y-85663489D01*
X185833345Y-85090000D01*
X185719271Y-84516511D01*
X185394415Y-84030330D01*
X185079634Y-83820000D01*
X185394415Y-83609670D01*
X185719271Y-83123489D01*
X185833345Y-82550000D01*
X185719271Y-81976511D01*
X185394415Y-81490330D01*
X185079634Y-81279999D01*
X185394415Y-81069670D01*
X185719271Y-80583489D01*
X185833345Y-80010000D01*
X185719271Y-79436511D01*
X185394415Y-78950330D01*
X185079634Y-78740000D01*
X185394415Y-78529670D01*
X185719271Y-78043489D01*
X185833345Y-77470000D01*
X185719271Y-76896511D01*
X185394415Y-76410330D01*
X185079634Y-76200000D01*
X185394415Y-75989670D01*
X185719271Y-75503489D01*
X185833345Y-74930000D01*
X185719271Y-74356511D01*
X185394415Y-73870330D01*
X185378632Y-73859784D01*
X185408123Y-73854063D01*
X185620927Y-73714273D01*
X185763377Y-73503240D01*
X185813440Y-73253600D01*
X185813440Y-71526400D01*
X185766463Y-71284277D01*
X185626673Y-71071473D01*
X185415640Y-70929023D01*
X185166000Y-70878960D01*
X183134000Y-70878960D01*
X182891877Y-70925937D01*
X182679073Y-71065727D01*
X182536623Y-71276760D01*
X182486560Y-71526400D01*
X182486560Y-73253600D01*
X182533537Y-73495723D01*
X182673327Y-73708527D01*
X182884360Y-73850977D01*
X182922962Y-73858718D01*
X182905585Y-73870330D01*
X182580729Y-74356511D01*
X182466655Y-74930000D01*
X182580729Y-75503489D01*
X182905585Y-75989670D01*
X183220365Y-76200000D01*
X182905585Y-76410330D01*
X182580729Y-76896511D01*
X182466655Y-77470000D01*
X182580729Y-78043489D01*
X182905585Y-78529670D01*
X183220365Y-78740000D01*
X182905585Y-78950330D01*
X182580729Y-79436511D01*
X182466655Y-80010000D01*
X182580729Y-80583489D01*
X182905585Y-81069670D01*
X183220365Y-81280000D01*
X182905585Y-81490330D01*
X182580729Y-81976511D01*
X182466655Y-82550000D01*
X182580729Y-83123489D01*
X182905585Y-83609670D01*
X183220365Y-83820000D01*
X182905585Y-84030330D01*
X182580729Y-84516511D01*
X182466655Y-85090000D01*
X182580729Y-85663489D01*
X182905585Y-86149670D01*
X183220365Y-86360000D01*
X182905585Y-86570330D01*
X182580729Y-87056511D01*
X182466655Y-87630000D01*
X182580729Y-88203489D01*
X182905585Y-88689670D01*
X183220365Y-88900000D01*
X182905585Y-89110330D01*
X182580729Y-89596511D01*
X182466655Y-90170000D01*
X182580729Y-90743489D01*
X182905585Y-91229670D01*
X183391766Y-91554526D01*
X183965255Y-91668600D01*
X184334745Y-91668600D01*
X184908234Y-91554526D01*
X185394415Y-91229670D01*
X185719271Y-90743489D01*
X185833345Y-90170000D01*
X185833345Y-94428129D01*
X185642309Y-94349000D01*
X184785750Y-94349000D01*
X184627000Y-94507750D01*
X184627000Y-95873000D01*
X185992250Y-95873000D01*
X186151000Y-95714250D01*
X186151000Y-96285750D01*
X185992250Y-96127000D01*
X184627000Y-96127000D01*
X184627000Y-96147000D01*
X184373000Y-96147000D01*
X184373000Y-96127000D01*
X184373000Y-95873000D01*
X184373000Y-94507750D01*
X184214250Y-94349000D01*
X183357691Y-94349000D01*
X183124302Y-94445673D01*
X182945673Y-94624301D01*
X182849000Y-94857690D01*
X182849000Y-95110309D01*
X182849000Y-95714250D01*
X183007750Y-95873000D01*
X184373000Y-95873000D01*
X184373000Y-96127000D01*
X183007750Y-96127000D01*
X182849000Y-96285750D01*
X182849000Y-96889691D01*
X182849000Y-97142310D01*
X182945673Y-97375699D01*
X183124302Y-97554327D01*
X183166965Y-97571998D01*
X182942330Y-97908190D01*
X182871157Y-98266000D01*
X181279440Y-98266000D01*
X181279440Y-98155000D01*
X181267000Y-98090883D01*
X181267000Y-96281309D01*
X181267000Y-95440750D01*
X181267000Y-94869250D01*
X181267000Y-94028691D01*
X181170327Y-93795302D01*
X180991699Y-93616673D01*
X180758310Y-93520000D01*
X180505691Y-93520000D01*
X180117750Y-93520000D01*
X179959000Y-93678750D01*
X179959000Y-95028000D01*
X181108250Y-95028000D01*
X181267000Y-94869250D01*
X181267000Y-95440750D01*
X181108250Y-95282000D01*
X179959000Y-95282000D01*
X179959000Y-96631250D01*
X180117750Y-96790000D01*
X180505691Y-96790000D01*
X180758310Y-96790000D01*
X180991699Y-96693327D01*
X181170327Y-96514698D01*
X181267000Y-96281309D01*
X181267000Y-98090883D01*
X181232463Y-97912877D01*
X181092673Y-97700073D01*
X180881640Y-97557623D01*
X180632000Y-97507560D01*
X179705000Y-97507560D01*
X179705000Y-96631250D01*
X179705000Y-95282000D01*
X179705000Y-95028000D01*
X179705000Y-93678750D01*
X179546250Y-93520000D01*
X179158309Y-93520000D01*
X178905690Y-93520000D01*
X178672301Y-93616673D01*
X178493673Y-93795302D01*
X178397000Y-94028691D01*
X178397000Y-94869250D01*
X178555750Y-95028000D01*
X179705000Y-95028000D01*
X179705000Y-95282000D01*
X178555750Y-95282000D01*
X178397000Y-95440750D01*
X178397000Y-96281309D01*
X178493673Y-96514698D01*
X178672301Y-96693327D01*
X178905690Y-96790000D01*
X179158309Y-96790000D01*
X179546250Y-96790000D01*
X179705000Y-96631250D01*
X179705000Y-97507560D01*
X179032000Y-97507560D01*
X178789877Y-97554537D01*
X178577073Y-97694327D01*
X178434623Y-97905360D01*
X178384560Y-98155000D01*
X178384560Y-98679000D01*
X177801235Y-98679000D01*
X177752673Y-98605073D01*
X177541640Y-98462623D01*
X177355057Y-98425205D01*
X177534123Y-98390463D01*
X177746927Y-98250673D01*
X177889377Y-98039640D01*
X177939440Y-97790000D01*
X177939440Y-96774000D01*
X177892463Y-96531877D01*
X177752673Y-96319073D01*
X177541640Y-96176623D01*
X177354032Y-96139000D01*
X177418310Y-96139000D01*
X177651699Y-96042327D01*
X177830327Y-95863698D01*
X177927000Y-95630309D01*
X177927000Y-95281750D01*
X177927000Y-94710250D01*
X177927000Y-94361691D01*
X177830327Y-94128302D01*
X177651699Y-93949673D01*
X177418310Y-93853000D01*
X177165691Y-93853000D01*
X176561750Y-93853000D01*
X176403000Y-94011750D01*
X176403000Y-94869000D01*
X177768250Y-94869000D01*
X177927000Y-94710250D01*
X177927000Y-95281750D01*
X177768250Y-95123000D01*
X176403000Y-95123000D01*
X176403000Y-95143000D01*
X176149000Y-95143000D01*
X176149000Y-95123000D01*
X176149000Y-94869000D01*
X176149000Y-94011750D01*
X175990250Y-93853000D01*
X175735000Y-93853000D01*
X175735000Y-87461418D01*
X175735000Y-84538582D01*
X175602931Y-83874626D01*
X175226830Y-83311752D01*
X174663956Y-82935651D01*
X174000000Y-82803582D01*
X173336044Y-82935651D01*
X172773170Y-83311752D01*
X172397069Y-83874626D01*
X172265000Y-84538582D01*
X172265000Y-87461418D01*
X172397069Y-88125374D01*
X172773170Y-88688248D01*
X173336044Y-89064349D01*
X174000000Y-89196418D01*
X174663956Y-89064349D01*
X175226830Y-88688248D01*
X175602931Y-88125374D01*
X175735000Y-87461418D01*
X175735000Y-93853000D01*
X175386309Y-93853000D01*
X175133690Y-93853000D01*
X174900301Y-93949673D01*
X174721673Y-94128302D01*
X174625000Y-94361691D01*
X174625000Y-94710250D01*
X174783750Y-94869000D01*
X176149000Y-94869000D01*
X176149000Y-95123000D01*
X174783750Y-95123000D01*
X174625000Y-95281750D01*
X174625000Y-95630309D01*
X174721673Y-95863698D01*
X174900301Y-96042327D01*
X175133690Y-96139000D01*
X175195883Y-96139000D01*
X175017877Y-96173537D01*
X174805073Y-96313327D01*
X174751292Y-96393000D01*
X173029493Y-96393000D01*
X173326045Y-96096965D01*
X173499203Y-95679956D01*
X173499597Y-95228425D01*
X173327167Y-94811114D01*
X173008165Y-94491555D01*
X172591156Y-94318397D01*
X172139625Y-94318003D01*
X171722314Y-94490433D01*
X171402755Y-94809435D01*
X171256305Y-95162123D01*
X171148673Y-94998273D01*
X170937640Y-94855823D01*
X170688000Y-94805760D01*
X168656000Y-94805760D01*
X168413877Y-94852737D01*
X168201073Y-94992527D01*
X168058623Y-95203560D01*
X168008560Y-95453200D01*
X168008560Y-97216000D01*
X167441669Y-97216000D01*
X167408904Y-97166120D01*
X167410327Y-97164698D01*
X167507000Y-96931309D01*
X167507000Y-96490750D01*
X167507000Y-95919250D01*
X167507000Y-95478691D01*
X167410327Y-95245302D01*
X167231699Y-95066673D01*
X166998310Y-94970000D01*
X166782750Y-94970000D01*
X166624000Y-95128750D01*
X166624000Y-96078000D01*
X167348250Y-96078000D01*
X167507000Y-95919250D01*
X167507000Y-96490750D01*
X167348250Y-96332000D01*
X166624000Y-96332000D01*
X166624000Y-96352000D01*
X166370000Y-96352000D01*
X166370000Y-96332000D01*
X166370000Y-96078000D01*
X166370000Y-95128750D01*
X166211250Y-94970000D01*
X165995690Y-94970000D01*
X165762301Y-95066673D01*
X165583673Y-95245302D01*
X165513345Y-95415088D01*
X165513345Y-90170000D01*
X165399271Y-89596511D01*
X165074415Y-89110330D01*
X164759634Y-88899999D01*
X165074415Y-88689670D01*
X165399271Y-88203489D01*
X165513345Y-87630000D01*
X165399271Y-87056511D01*
X165074415Y-86570330D01*
X164759634Y-86360000D01*
X165074415Y-86149670D01*
X165399271Y-85663489D01*
X165513345Y-85090000D01*
X165399271Y-84516511D01*
X165074415Y-84030330D01*
X164759634Y-83820000D01*
X165074415Y-83609670D01*
X165399271Y-83123489D01*
X165513345Y-82550000D01*
X165399271Y-81976511D01*
X165074415Y-81490330D01*
X164759634Y-81279999D01*
X165074415Y-81069670D01*
X165399271Y-80583489D01*
X165513345Y-80010000D01*
X165399271Y-79436511D01*
X165074415Y-78950330D01*
X164759634Y-78740000D01*
X165074415Y-78529670D01*
X165399271Y-78043489D01*
X165513345Y-77470000D01*
X165399271Y-76896511D01*
X165074415Y-76410330D01*
X164759634Y-76200000D01*
X165074415Y-75989670D01*
X165399271Y-75503489D01*
X165513345Y-74930000D01*
X165399271Y-74356511D01*
X165074415Y-73870330D01*
X165058632Y-73859784D01*
X165088123Y-73854063D01*
X165300927Y-73714273D01*
X165443377Y-73503240D01*
X165493440Y-73253600D01*
X165493440Y-71526400D01*
X165446463Y-71284277D01*
X165306673Y-71071473D01*
X165095640Y-70929023D01*
X164846000Y-70878960D01*
X162814000Y-70878960D01*
X162571877Y-70925937D01*
X162359073Y-71065727D01*
X162216623Y-71276760D01*
X162166560Y-71526400D01*
X162166560Y-73253600D01*
X162213537Y-73495723D01*
X162353327Y-73708527D01*
X162564360Y-73850977D01*
X162602962Y-73858718D01*
X162585585Y-73870330D01*
X162260729Y-74356511D01*
X162146655Y-74930000D01*
X162260729Y-75503489D01*
X162585585Y-75989670D01*
X162900365Y-76200000D01*
X162585585Y-76410330D01*
X162260729Y-76896511D01*
X162146655Y-77470000D01*
X162260729Y-78043489D01*
X162585585Y-78529670D01*
X162900365Y-78740000D01*
X162585585Y-78950330D01*
X162260729Y-79436511D01*
X162146655Y-80010000D01*
X162260729Y-80583489D01*
X162585585Y-81069670D01*
X162900365Y-81280000D01*
X162585585Y-81490330D01*
X162260729Y-81976511D01*
X162146655Y-82550000D01*
X162260729Y-83123489D01*
X162585585Y-83609670D01*
X162900365Y-83820000D01*
X162585585Y-84030330D01*
X162260729Y-84516511D01*
X162146655Y-85090000D01*
X162260729Y-85663489D01*
X162585585Y-86149670D01*
X162900365Y-86360000D01*
X162585585Y-86570330D01*
X162260729Y-87056511D01*
X162146655Y-87630000D01*
X162260729Y-88203489D01*
X162585585Y-88689670D01*
X162900365Y-88900000D01*
X162585585Y-89110330D01*
X162260729Y-89596511D01*
X162146655Y-90170000D01*
X162260729Y-90743489D01*
X162585585Y-91229670D01*
X163071766Y-91554526D01*
X163645255Y-91668600D01*
X164014745Y-91668600D01*
X164588234Y-91554526D01*
X165074415Y-91229670D01*
X165399271Y-90743489D01*
X165513345Y-90170000D01*
X165513345Y-95415088D01*
X165487000Y-95478691D01*
X165487000Y-95919250D01*
X165645750Y-96078000D01*
X166370000Y-96078000D01*
X166370000Y-96332000D01*
X165645750Y-96332000D01*
X165487000Y-96490750D01*
X165487000Y-96931309D01*
X165583673Y-97164698D01*
X165584955Y-97165980D01*
X165524623Y-97255360D01*
X165474560Y-97505000D01*
X165474560Y-98705000D01*
X165521537Y-98947123D01*
X165661327Y-99159927D01*
X165872360Y-99302377D01*
X166122000Y-99352440D01*
X166872000Y-99352440D01*
X167114123Y-99305463D01*
X167326927Y-99165673D01*
X167442808Y-98994000D01*
X168008560Y-98994000D01*
X168008560Y-99110800D01*
X168055537Y-99352923D01*
X168195327Y-99565727D01*
X168406360Y-99708177D01*
X168656000Y-99758240D01*
X170688000Y-99758240D01*
X170930123Y-99711263D01*
X171142927Y-99571473D01*
X171285377Y-99360440D01*
X171335440Y-99110800D01*
X171335440Y-98171000D01*
X174750764Y-98171000D01*
X174799327Y-98244927D01*
X175010360Y-98387377D01*
X175196942Y-98424794D01*
X175017877Y-98459537D01*
X174805073Y-98599327D01*
X174662623Y-98810360D01*
X174612560Y-99060000D01*
X174612560Y-100076000D01*
X174659537Y-100318123D01*
X174799327Y-100530927D01*
X175010360Y-100673377D01*
X175260000Y-100723440D01*
X177292000Y-100723440D01*
X177534123Y-100676463D01*
X177746927Y-100536673D01*
X177800707Y-100457000D01*
X178470869Y-100457000D01*
X178571327Y-100609927D01*
X178782360Y-100752377D01*
X179032000Y-100802440D01*
X180632000Y-100802440D01*
X180874123Y-100755463D01*
X181086927Y-100615673D01*
X181229377Y-100404640D01*
X181279440Y-100155000D01*
X181279440Y-100044000D01*
X183803929Y-100044000D01*
X183835845Y-100065325D01*
X184467655Y-100191000D01*
X184532345Y-100191000D01*
X185164155Y-100065325D01*
X185699778Y-99707433D01*
X186057670Y-99171810D01*
X186183345Y-98540000D01*
X186183345Y-99594403D01*
X186164442Y-99689435D01*
X185773908Y-100273910D01*
X185189434Y-100664443D01*
X184432532Y-100815000D01*
X165183345Y-100815000D01*
X165183345Y-98540000D01*
X165057670Y-97908190D01*
X164830830Y-97568701D01*
X164970927Y-97476673D01*
X165113377Y-97265640D01*
X165163440Y-97016000D01*
X165163440Y-94984000D01*
X165116463Y-94741877D01*
X164976673Y-94529073D01*
X164765640Y-94386623D01*
X164516000Y-94336560D01*
X162484000Y-94336560D01*
X162241877Y-94383537D01*
X162029073Y-94523327D01*
X161886623Y-94734360D01*
X161836560Y-94984000D01*
X161836560Y-97016000D01*
X161883537Y-97258123D01*
X162023327Y-97470927D01*
X162168860Y-97569163D01*
X161942330Y-97908190D01*
X161816655Y-98540000D01*
X161942330Y-99171810D01*
X162300222Y-99707433D01*
X162835845Y-100065325D01*
X163467655Y-100191000D01*
X163532345Y-100191000D01*
X164164155Y-100065325D01*
X164699778Y-99707433D01*
X165057670Y-99171810D01*
X165183345Y-98540000D01*
X165183345Y-100815000D01*
X163567467Y-100815000D01*
X162810564Y-100664442D01*
X162226089Y-100273908D01*
X161835556Y-99689434D01*
X161685000Y-98932532D01*
X161685000Y-93500000D01*
X161685000Y-46685000D01*
X179262569Y-46685000D01*
X179115135Y-46832433D01*
X179065640Y-46799023D01*
X178816000Y-46748960D01*
X176784000Y-46748960D01*
X176541877Y-46795937D01*
X176329073Y-46935727D01*
X176186623Y-47146760D01*
X176136560Y-47396400D01*
X176136560Y-49123600D01*
X176183537Y-49365723D01*
X176323327Y-49578527D01*
X176534360Y-49720977D01*
X176572962Y-49728718D01*
X176555585Y-49740330D01*
X176230729Y-50226511D01*
X176116655Y-50800000D01*
X176230729Y-51373489D01*
X176555585Y-51859670D01*
X176870365Y-52070000D01*
X176555585Y-52280330D01*
X176230729Y-52766511D01*
X176116655Y-53340000D01*
X176230729Y-53913489D01*
X176555585Y-54399670D01*
X176870365Y-54609999D01*
X176555585Y-54820330D01*
X176230729Y-55306511D01*
X176116655Y-55880000D01*
X176172231Y-56159400D01*
X172770800Y-56159400D01*
X172469475Y-56219337D01*
X172214024Y-56390024D01*
X171655224Y-56948824D01*
X171484537Y-57204275D01*
X171446824Y-57393868D01*
X171424415Y-57360330D01*
X171109634Y-57150000D01*
X171424415Y-56939670D01*
X171749271Y-56453489D01*
X171863345Y-55880000D01*
X171749271Y-55306511D01*
X171424415Y-54820330D01*
X171109634Y-54609999D01*
X171424415Y-54399670D01*
X171749271Y-53913489D01*
X171863345Y-53340000D01*
X171749271Y-52766511D01*
X171424415Y-52280330D01*
X171109634Y-52070000D01*
X171424415Y-51859670D01*
X171749271Y-51373489D01*
X171863345Y-50800000D01*
X171749271Y-50226511D01*
X171424415Y-49740330D01*
X171402219Y-49725499D01*
X171555698Y-49661927D01*
X171734327Y-49483299D01*
X171831000Y-49249910D01*
X171831000Y-48997291D01*
X171831000Y-48545750D01*
X171831000Y-47974250D01*
X171831000Y-47522709D01*
X171831000Y-47270090D01*
X171734327Y-47036701D01*
X171555698Y-46858073D01*
X171322309Y-46761400D01*
X170465750Y-46761400D01*
X170307000Y-46920150D01*
X170307000Y-48133000D01*
X171672250Y-48133000D01*
X171831000Y-47974250D01*
X171831000Y-48545750D01*
X171672250Y-48387000D01*
X170307000Y-48387000D01*
X170307000Y-48407000D01*
X170053000Y-48407000D01*
X170053000Y-48387000D01*
X170053000Y-48133000D01*
X170053000Y-46920150D01*
X169894250Y-46761400D01*
X169037691Y-46761400D01*
X168804302Y-46858073D01*
X168625673Y-47036701D01*
X168529000Y-47270090D01*
X168529000Y-47522709D01*
X168529000Y-47974250D01*
X168687750Y-48133000D01*
X170053000Y-48133000D01*
X170053000Y-48387000D01*
X168687750Y-48387000D01*
X168529000Y-48545750D01*
X168529000Y-48997291D01*
X168529000Y-49249910D01*
X168530171Y-49252738D01*
X167003717Y-47726283D01*
X166735906Y-47547337D01*
X166420000Y-47484500D01*
X165981958Y-47484500D01*
X165718980Y-47221062D01*
X165246772Y-47024984D01*
X164735472Y-47024538D01*
X164262921Y-47219792D01*
X163901062Y-47581020D01*
X163896433Y-47592166D01*
X163889189Y-47590416D01*
X163709584Y-47770021D01*
X163709584Y-47410811D01*
X163653874Y-47180191D01*
X163170980Y-47012139D01*
X162660533Y-47041675D01*
X162326126Y-47180191D01*
X162270416Y-47410811D01*
X162990000Y-48130395D01*
X163709584Y-47410811D01*
X163709584Y-47770021D01*
X163169605Y-48310000D01*
X163183747Y-48324142D01*
X163004142Y-48503747D01*
X162990000Y-48489605D01*
X162810395Y-48669210D01*
X162810395Y-48310000D01*
X162090811Y-47590416D01*
X161860191Y-47646126D01*
X161692139Y-48129020D01*
X161721675Y-48639467D01*
X161860191Y-48973874D01*
X162090811Y-49029584D01*
X162810395Y-48310000D01*
X162810395Y-48669210D01*
X162270416Y-49209189D01*
X162272064Y-49216013D01*
X162262921Y-49219792D01*
X161901062Y-49581020D01*
X161704984Y-50053228D01*
X161704538Y-50564528D01*
X161899792Y-51037079D01*
X162172395Y-51310159D01*
X161901062Y-51581020D01*
X161704984Y-52053228D01*
X161704538Y-52564528D01*
X161899792Y-53037079D01*
X162172395Y-53310159D01*
X161901062Y-53581020D01*
X161704984Y-54053228D01*
X161704538Y-54564528D01*
X161899792Y-55037079D01*
X162172395Y-55310159D01*
X161901062Y-55581020D01*
X161704984Y-56053228D01*
X161704538Y-56564528D01*
X161899792Y-57037079D01*
X162172395Y-57310159D01*
X161901062Y-57581020D01*
X161704984Y-58053228D01*
X161704538Y-58564528D01*
X161899792Y-59037079D01*
X162172395Y-59310159D01*
X161901062Y-59581020D01*
X161704984Y-60053228D01*
X161704538Y-60564528D01*
X161899792Y-61037079D01*
X162172395Y-61310159D01*
X161901062Y-61581020D01*
X161704984Y-62053228D01*
X161704538Y-62564528D01*
X161899792Y-63037079D01*
X162172395Y-63310159D01*
X161901062Y-63581020D01*
X161704984Y-64053228D01*
X161704538Y-64564528D01*
X161899792Y-65037079D01*
X162261020Y-65398938D01*
X162733228Y-65595016D01*
X163244528Y-65595462D01*
X163717079Y-65400208D01*
X163990159Y-65127604D01*
X164261020Y-65398938D01*
X164733228Y-65595016D01*
X165197790Y-65595421D01*
X166166800Y-66564430D01*
X166166800Y-67818000D01*
X166224804Y-68109605D01*
X166389985Y-68356815D01*
X166827200Y-68794030D01*
X166827200Y-89052400D01*
X166885204Y-89344005D01*
X167050385Y-89591215D01*
X168563436Y-91104267D01*
X168496655Y-91440000D01*
X168610729Y-92013489D01*
X168935585Y-92499670D01*
X169421766Y-92824526D01*
X169995255Y-92938600D01*
X170364745Y-92938600D01*
X170938234Y-92824526D01*
X171424415Y-92499670D01*
X171749271Y-92013489D01*
X171863345Y-91440000D01*
X171749271Y-90866511D01*
X171424415Y-90380330D01*
X171109634Y-90170000D01*
X171424415Y-89959670D01*
X171749271Y-89473489D01*
X171863345Y-88900000D01*
X171749271Y-88326511D01*
X171424415Y-87840330D01*
X171109634Y-87630000D01*
X171424415Y-87419670D01*
X171749271Y-86933489D01*
X171863345Y-86360000D01*
X171749271Y-85786511D01*
X171424415Y-85300330D01*
X171109634Y-85090000D01*
X171424415Y-84879670D01*
X171749271Y-84393489D01*
X171863345Y-83820000D01*
X171749271Y-83246511D01*
X171424415Y-82760330D01*
X171109634Y-82550000D01*
X171424415Y-82339670D01*
X171749271Y-81853489D01*
X171863345Y-81280000D01*
X171749271Y-80706511D01*
X171424415Y-80220330D01*
X171109634Y-80009999D01*
X171424415Y-79799670D01*
X171749271Y-79313489D01*
X171863345Y-78740000D01*
X171749271Y-78166511D01*
X171424415Y-77680330D01*
X171114930Y-77473539D01*
X171530732Y-77102036D01*
X171784709Y-76574791D01*
X171787358Y-76559026D01*
X171666217Y-76327000D01*
X170307000Y-76327000D01*
X170307000Y-76347000D01*
X170053000Y-76347000D01*
X170053000Y-76327000D01*
X170033000Y-76327000D01*
X170033000Y-76073000D01*
X170053000Y-76073000D01*
X170053000Y-76053000D01*
X170307000Y-76053000D01*
X170307000Y-76073000D01*
X171666217Y-76073000D01*
X171787358Y-75840974D01*
X171784709Y-75825209D01*
X171530732Y-75297964D01*
X171114930Y-74926460D01*
X171424415Y-74719670D01*
X171749271Y-74233489D01*
X171863345Y-73660000D01*
X171749271Y-73086511D01*
X171424415Y-72600330D01*
X171109634Y-72389999D01*
X171424415Y-72179670D01*
X171749271Y-71693489D01*
X171863345Y-71120000D01*
X171749271Y-70546511D01*
X171424415Y-70060330D01*
X171109634Y-69850000D01*
X171424415Y-69639670D01*
X171749271Y-69153489D01*
X171863345Y-68580000D01*
X171749271Y-68006511D01*
X171424415Y-67520330D01*
X171109634Y-67310000D01*
X171424415Y-67099670D01*
X171749271Y-66613489D01*
X171863345Y-66040000D01*
X171749271Y-65466511D01*
X171424415Y-64980330D01*
X171109634Y-64769999D01*
X171424415Y-64559670D01*
X171677600Y-64180752D01*
X173558200Y-66061352D01*
X173558200Y-68422693D01*
X173383955Y-68596635D01*
X173210797Y-69013644D01*
X173210403Y-69465175D01*
X173382833Y-69882486D01*
X173701835Y-70202045D01*
X174118844Y-70375203D01*
X174570375Y-70375597D01*
X174987686Y-70203167D01*
X175307245Y-69884165D01*
X175480403Y-69467156D01*
X175480797Y-69015625D01*
X175308367Y-68598314D01*
X175133000Y-68422640D01*
X175133000Y-65735200D01*
X175073063Y-65433875D01*
X174946618Y-65244637D01*
X175129175Y-65244797D01*
X175546486Y-65072367D01*
X175866045Y-64753365D01*
X176039203Y-64336356D01*
X176039419Y-64088132D01*
X176201418Y-63926133D01*
X176230729Y-64073489D01*
X176555585Y-64559670D01*
X176870365Y-64769999D01*
X176555585Y-64980330D01*
X176230729Y-65466511D01*
X176116655Y-66040000D01*
X176230729Y-66613489D01*
X176555585Y-67099670D01*
X176870365Y-67310000D01*
X176555585Y-67520330D01*
X176230729Y-68006511D01*
X176116655Y-68580000D01*
X176230729Y-69153489D01*
X176555585Y-69639670D01*
X176870365Y-69850000D01*
X176555585Y-70060330D01*
X176230729Y-70546511D01*
X176116655Y-71120000D01*
X176230729Y-71693489D01*
X176555585Y-72179670D01*
X176870365Y-72389999D01*
X176555585Y-72600330D01*
X176230729Y-73086511D01*
X176116655Y-73660000D01*
X176230729Y-74233489D01*
X176555585Y-74719670D01*
X176870365Y-74930000D01*
X176555585Y-75140330D01*
X176230729Y-75626511D01*
X176116655Y-76200000D01*
X176230729Y-76773489D01*
X176555585Y-77259670D01*
X176870365Y-77470000D01*
X176555585Y-77680330D01*
X176230729Y-78166511D01*
X176116655Y-78740000D01*
X176230729Y-79313489D01*
X176555585Y-79799670D01*
X176870365Y-80009999D01*
X176555585Y-80220330D01*
X176230729Y-80706511D01*
X176116655Y-81280000D01*
X176230729Y-81853489D01*
X176555585Y-82339670D01*
X176870365Y-82550000D01*
X176555585Y-82760330D01*
X176230729Y-83246511D01*
X176116655Y-83820000D01*
X176230729Y-84393489D01*
X176555585Y-84879670D01*
X176870365Y-85090000D01*
X176555585Y-85300330D01*
X176230729Y-85786511D01*
X176116655Y-86360000D01*
X176230729Y-86933489D01*
X176555585Y-87419670D01*
X176870365Y-87630000D01*
X176555585Y-87840330D01*
X176230729Y-88326511D01*
X176116655Y-88900000D01*
X176230729Y-89473489D01*
X176555585Y-89959670D01*
X176870365Y-90170000D01*
X176555585Y-90380330D01*
X176230729Y-90866511D01*
X176116655Y-91440000D01*
X176230729Y-92013489D01*
X176555585Y-92499670D01*
X177041766Y-92824526D01*
X177615255Y-92938600D01*
X177984745Y-92938600D01*
X178558234Y-92824526D01*
X179044415Y-92499670D01*
X179277664Y-92150588D01*
X179277664Y-92150587D01*
X179310804Y-92143996D01*
X179310805Y-92143996D01*
X179558015Y-91978815D01*
X180878815Y-90658016D01*
X180878815Y-90658015D01*
X181043996Y-90410805D01*
X181101999Y-90119200D01*
X181102000Y-90119200D01*
X181102000Y-69352830D01*
X181590015Y-68864815D01*
X181590016Y-68864815D01*
X181689034Y-68716623D01*
X181755196Y-68617605D01*
X181755196Y-68617604D01*
X181813200Y-68326000D01*
X181813200Y-65492030D01*
X182083811Y-65221419D01*
X182261020Y-65398938D01*
X182733228Y-65595016D01*
X183244528Y-65595462D01*
X183717079Y-65400208D01*
X183990159Y-65127604D01*
X184261020Y-65398938D01*
X184733228Y-65595016D01*
X185244528Y-65595462D01*
X185717079Y-65400208D01*
X186078938Y-65038980D01*
X186275016Y-64566772D01*
X186275462Y-64055472D01*
X186080208Y-63582921D01*
X185807604Y-63309840D01*
X186078938Y-63038980D01*
X186275016Y-62566772D01*
X186275462Y-62055472D01*
X186080208Y-61582921D01*
X185807604Y-61309840D01*
X186078938Y-61038980D01*
X186275016Y-60566772D01*
X186275462Y-60055472D01*
X186080208Y-59582921D01*
X185807604Y-59309840D01*
X186078938Y-59038980D01*
X186275016Y-58566772D01*
X186275462Y-58055472D01*
X186080208Y-57582921D01*
X185807604Y-57309840D01*
X186078938Y-57038980D01*
X186275016Y-56566772D01*
X186275462Y-56055472D01*
X186080208Y-55582921D01*
X185807604Y-55309840D01*
X186078938Y-55038980D01*
X186275016Y-54566772D01*
X186275462Y-54055472D01*
X186080208Y-53582921D01*
X185807604Y-53309840D01*
X186078938Y-53038980D01*
X186275016Y-52566772D01*
X186275462Y-52055472D01*
X186080208Y-51582921D01*
X185807604Y-51309840D01*
X186078938Y-51038980D01*
X186275016Y-50566772D01*
X186275462Y-50055472D01*
X186080208Y-49582921D01*
X185807604Y-49309840D01*
X186078938Y-49038980D01*
X186275016Y-48566772D01*
X186275462Y-48055472D01*
X186080208Y-47582921D01*
X185718980Y-47221062D01*
X185672812Y-47201891D01*
X185528815Y-46986385D01*
X185528815Y-46986384D01*
X185227430Y-46685000D01*
X186315000Y-46685000D01*
X186315000Y-93500000D01*
X186315000Y-98932532D01*
X186315000Y-98932532D01*
G37*
X186315000Y-98932532D02*
X186183345Y-99594403D01*
X186183345Y-98540000D01*
X186057670Y-97908190D01*
X185833034Y-97571998D01*
X185875698Y-97554327D01*
X186054327Y-97375699D01*
X186151000Y-97142310D01*
X186151000Y-96889691D01*
X186151000Y-96285750D01*
X186151000Y-95714250D01*
X186151000Y-95110309D01*
X186151000Y-94857690D01*
X186054327Y-94624301D01*
X185875698Y-94445673D01*
X185833345Y-94428129D01*
X185833345Y-90170000D01*
X185719271Y-89596511D01*
X185394415Y-89110330D01*
X185079634Y-88899999D01*
X185394415Y-88689670D01*
X185719271Y-88203489D01*
X185833345Y-87630000D01*
X185719271Y-87056511D01*
X185394415Y-86570330D01*
X185079634Y-86360000D01*
X185394415Y-86149670D01*
X185719271Y-85663489D01*
X185833345Y-85090000D01*
X185719271Y-84516511D01*
X185394415Y-84030330D01*
X185079634Y-83820000D01*
X185394415Y-83609670D01*
X185719271Y-83123489D01*
X185833345Y-82550000D01*
X185719271Y-81976511D01*
X185394415Y-81490330D01*
X185079634Y-81279999D01*
X185394415Y-81069670D01*
X185719271Y-80583489D01*
X185833345Y-80010000D01*
X185719271Y-79436511D01*
X185394415Y-78950330D01*
X185079634Y-78740000D01*
X185394415Y-78529670D01*
X185719271Y-78043489D01*
X185833345Y-77470000D01*
X185719271Y-76896511D01*
X185394415Y-76410330D01*
X185079634Y-76200000D01*
X185394415Y-75989670D01*
X185719271Y-75503489D01*
X185833345Y-74930000D01*
X185719271Y-74356511D01*
X185394415Y-73870330D01*
X185378632Y-73859784D01*
X185408123Y-73854063D01*
X185620927Y-73714273D01*
X185763377Y-73503240D01*
X185813440Y-73253600D01*
X185813440Y-71526400D01*
X185766463Y-71284277D01*
X185626673Y-71071473D01*
X185415640Y-70929023D01*
X185166000Y-70878960D01*
X183134000Y-70878960D01*
X182891877Y-70925937D01*
X182679073Y-71065727D01*
X182536623Y-71276760D01*
X182486560Y-71526400D01*
X182486560Y-73253600D01*
X182533537Y-73495723D01*
X182673327Y-73708527D01*
X182884360Y-73850977D01*
X182922962Y-73858718D01*
X182905585Y-73870330D01*
X182580729Y-74356511D01*
X182466655Y-74930000D01*
X182580729Y-75503489D01*
X182905585Y-75989670D01*
X183220365Y-76200000D01*
X182905585Y-76410330D01*
X182580729Y-76896511D01*
X182466655Y-77470000D01*
X182580729Y-78043489D01*
X182905585Y-78529670D01*
X183220365Y-78740000D01*
X182905585Y-78950330D01*
X182580729Y-79436511D01*
X182466655Y-80010000D01*
X182580729Y-80583489D01*
X182905585Y-81069670D01*
X183220365Y-81280000D01*
X182905585Y-81490330D01*
X182580729Y-81976511D01*
X182466655Y-82550000D01*
X182580729Y-83123489D01*
X182905585Y-83609670D01*
X183220365Y-83820000D01*
X182905585Y-84030330D01*
X182580729Y-84516511D01*
X182466655Y-85090000D01*
X182580729Y-85663489D01*
X182905585Y-86149670D01*
X183220365Y-86360000D01*
X182905585Y-86570330D01*
X182580729Y-87056511D01*
X182466655Y-87630000D01*
X182580729Y-88203489D01*
X182905585Y-88689670D01*
X183220365Y-88900000D01*
X182905585Y-89110330D01*
X182580729Y-89596511D01*
X182466655Y-90170000D01*
X182580729Y-90743489D01*
X182905585Y-91229670D01*
X183391766Y-91554526D01*
X183965255Y-91668600D01*
X184334745Y-91668600D01*
X184908234Y-91554526D01*
X185394415Y-91229670D01*
X185719271Y-90743489D01*
X185833345Y-90170000D01*
X185833345Y-94428129D01*
X185642309Y-94349000D01*
X184785750Y-94349000D01*
X184627000Y-94507750D01*
X184627000Y-95873000D01*
X185992250Y-95873000D01*
X186151000Y-95714250D01*
X186151000Y-96285750D01*
X185992250Y-96127000D01*
X184627000Y-96127000D01*
X184627000Y-96147000D01*
X184373000Y-96147000D01*
X184373000Y-96127000D01*
X184373000Y-95873000D01*
X184373000Y-94507750D01*
X184214250Y-94349000D01*
X183357691Y-94349000D01*
X183124302Y-94445673D01*
X182945673Y-94624301D01*
X182849000Y-94857690D01*
X182849000Y-95110309D01*
X182849000Y-95714250D01*
X183007750Y-95873000D01*
X184373000Y-95873000D01*
X184373000Y-96127000D01*
X183007750Y-96127000D01*
X182849000Y-96285750D01*
X182849000Y-96889691D01*
X182849000Y-97142310D01*
X182945673Y-97375699D01*
X183124302Y-97554327D01*
X183166965Y-97571998D01*
X182942330Y-97908190D01*
X182871157Y-98266000D01*
X181279440Y-98266000D01*
X181279440Y-98155000D01*
X181267000Y-98090883D01*
X181267000Y-96281309D01*
X181267000Y-95440750D01*
X181267000Y-94869250D01*
X181267000Y-94028691D01*
X181170327Y-93795302D01*
X180991699Y-93616673D01*
X180758310Y-93520000D01*
X180505691Y-93520000D01*
X180117750Y-93520000D01*
X179959000Y-93678750D01*
X179959000Y-95028000D01*
X181108250Y-95028000D01*
X181267000Y-94869250D01*
X181267000Y-95440750D01*
X181108250Y-95282000D01*
X179959000Y-95282000D01*
X179959000Y-96631250D01*
X180117750Y-96790000D01*
X180505691Y-96790000D01*
X180758310Y-96790000D01*
X180991699Y-96693327D01*
X181170327Y-96514698D01*
X181267000Y-96281309D01*
X181267000Y-98090883D01*
X181232463Y-97912877D01*
X181092673Y-97700073D01*
X180881640Y-97557623D01*
X180632000Y-97507560D01*
X179705000Y-97507560D01*
X179705000Y-96631250D01*
X179705000Y-95282000D01*
X179705000Y-95028000D01*
X179705000Y-93678750D01*
X179546250Y-93520000D01*
X179158309Y-93520000D01*
X178905690Y-93520000D01*
X178672301Y-93616673D01*
X178493673Y-93795302D01*
X178397000Y-94028691D01*
X178397000Y-94869250D01*
X178555750Y-95028000D01*
X179705000Y-95028000D01*
X179705000Y-95282000D01*
X178555750Y-95282000D01*
X178397000Y-95440750D01*
X178397000Y-96281309D01*
X178493673Y-96514698D01*
X178672301Y-96693327D01*
X178905690Y-96790000D01*
X179158309Y-96790000D01*
X179546250Y-96790000D01*
X179705000Y-96631250D01*
X179705000Y-97507560D01*
X179032000Y-97507560D01*
X178789877Y-97554537D01*
X178577073Y-97694327D01*
X178434623Y-97905360D01*
X178384560Y-98155000D01*
X178384560Y-98679000D01*
X177801235Y-98679000D01*
X177752673Y-98605073D01*
X177541640Y-98462623D01*
X177355057Y-98425205D01*
X177534123Y-98390463D01*
X177746927Y-98250673D01*
X177889377Y-98039640D01*
X177939440Y-97790000D01*
X177939440Y-96774000D01*
X177892463Y-96531877D01*
X177752673Y-96319073D01*
X177541640Y-96176623D01*
X177354032Y-96139000D01*
X177418310Y-96139000D01*
X177651699Y-96042327D01*
X177830327Y-95863698D01*
X177927000Y-95630309D01*
X177927000Y-95281750D01*
X177927000Y-94710250D01*
X177927000Y-94361691D01*
X177830327Y-94128302D01*
X177651699Y-93949673D01*
X177418310Y-93853000D01*
X177165691Y-93853000D01*
X176561750Y-93853000D01*
X176403000Y-94011750D01*
X176403000Y-94869000D01*
X177768250Y-94869000D01*
X177927000Y-94710250D01*
X177927000Y-95281750D01*
X177768250Y-95123000D01*
X176403000Y-95123000D01*
X176403000Y-95143000D01*
X176149000Y-95143000D01*
X176149000Y-95123000D01*
X176149000Y-94869000D01*
X176149000Y-94011750D01*
X175990250Y-93853000D01*
X175735000Y-93853000D01*
X175735000Y-87461418D01*
X175735000Y-84538582D01*
X175602931Y-83874626D01*
X175226830Y-83311752D01*
X174663956Y-82935651D01*
X174000000Y-82803582D01*
X173336044Y-82935651D01*
X172773170Y-83311752D01*
X172397069Y-83874626D01*
X172265000Y-84538582D01*
X172265000Y-87461418D01*
X172397069Y-88125374D01*
X172773170Y-88688248D01*
X173336044Y-89064349D01*
X174000000Y-89196418D01*
X174663956Y-89064349D01*
X175226830Y-88688248D01*
X175602931Y-88125374D01*
X175735000Y-87461418D01*
X175735000Y-93853000D01*
X175386309Y-93853000D01*
X175133690Y-93853000D01*
X174900301Y-93949673D01*
X174721673Y-94128302D01*
X174625000Y-94361691D01*
X174625000Y-94710250D01*
X174783750Y-94869000D01*
X176149000Y-94869000D01*
X176149000Y-95123000D01*
X174783750Y-95123000D01*
X174625000Y-95281750D01*
X174625000Y-95630309D01*
X174721673Y-95863698D01*
X174900301Y-96042327D01*
X175133690Y-96139000D01*
X175195883Y-96139000D01*
X175017877Y-96173537D01*
X174805073Y-96313327D01*
X174751292Y-96393000D01*
X173029493Y-96393000D01*
X173326045Y-96096965D01*
X173499203Y-95679956D01*
X173499597Y-95228425D01*
X173327167Y-94811114D01*
X173008165Y-94491555D01*
X172591156Y-94318397D01*
X172139625Y-94318003D01*
X171722314Y-94490433D01*
X171402755Y-94809435D01*
X171256305Y-95162123D01*
X171148673Y-94998273D01*
X170937640Y-94855823D01*
X170688000Y-94805760D01*
X168656000Y-94805760D01*
X168413877Y-94852737D01*
X168201073Y-94992527D01*
X168058623Y-95203560D01*
X168008560Y-95453200D01*
X168008560Y-97216000D01*
X167441669Y-97216000D01*
X167408904Y-97166120D01*
X167410327Y-97164698D01*
X167507000Y-96931309D01*
X167507000Y-96490750D01*
X167507000Y-95919250D01*
X167507000Y-95478691D01*
X167410327Y-95245302D01*
X167231699Y-95066673D01*
X166998310Y-94970000D01*
X166782750Y-94970000D01*
X166624000Y-95128750D01*
X166624000Y-96078000D01*
X167348250Y-96078000D01*
X167507000Y-95919250D01*
X167507000Y-96490750D01*
X167348250Y-96332000D01*
X166624000Y-96332000D01*
X166624000Y-96352000D01*
X166370000Y-96352000D01*
X166370000Y-96332000D01*
X166370000Y-96078000D01*
X166370000Y-95128750D01*
X166211250Y-94970000D01*
X165995690Y-94970000D01*
X165762301Y-95066673D01*
X165583673Y-95245302D01*
X165513345Y-95415088D01*
X165513345Y-90170000D01*
X165399271Y-89596511D01*
X165074415Y-89110330D01*
X164759634Y-88899999D01*
X165074415Y-88689670D01*
X165399271Y-88203489D01*
X165513345Y-87630000D01*
X165399271Y-87056511D01*
X165074415Y-86570330D01*
X164759634Y-86360000D01*
X165074415Y-86149670D01*
X165399271Y-85663489D01*
X165513345Y-85090000D01*
X165399271Y-84516511D01*
X165074415Y-84030330D01*
X164759634Y-83820000D01*
X165074415Y-83609670D01*
X165399271Y-83123489D01*
X165513345Y-82550000D01*
X165399271Y-81976511D01*
X165074415Y-81490330D01*
X164759634Y-81279999D01*
X165074415Y-81069670D01*
X165399271Y-80583489D01*
X165513345Y-80010000D01*
X165399271Y-79436511D01*
X165074415Y-78950330D01*
X164759634Y-78740000D01*
X165074415Y-78529670D01*
X165399271Y-78043489D01*
X165513345Y-77470000D01*
X165399271Y-76896511D01*
X165074415Y-76410330D01*
X164759634Y-76200000D01*
X165074415Y-75989670D01*
X165399271Y-75503489D01*
X165513345Y-74930000D01*
X165399271Y-74356511D01*
X165074415Y-73870330D01*
X165058632Y-73859784D01*
X165088123Y-73854063D01*
X165300927Y-73714273D01*
X165443377Y-73503240D01*
X165493440Y-73253600D01*
X165493440Y-71526400D01*
X165446463Y-71284277D01*
X165306673Y-71071473D01*
X165095640Y-70929023D01*
X164846000Y-70878960D01*
X162814000Y-70878960D01*
X162571877Y-70925937D01*
X162359073Y-71065727D01*
X162216623Y-71276760D01*
X162166560Y-71526400D01*
X162166560Y-73253600D01*
X162213537Y-73495723D01*
X162353327Y-73708527D01*
X162564360Y-73850977D01*
X162602962Y-73858718D01*
X162585585Y-73870330D01*
X162260729Y-74356511D01*
X162146655Y-74930000D01*
X162260729Y-75503489D01*
X162585585Y-75989670D01*
X162900365Y-76200000D01*
X162585585Y-76410330D01*
X162260729Y-76896511D01*
X162146655Y-77470000D01*
X162260729Y-78043489D01*
X162585585Y-78529670D01*
X162900365Y-78740000D01*
X162585585Y-78950330D01*
X162260729Y-79436511D01*
X162146655Y-80010000D01*
X162260729Y-80583489D01*
X162585585Y-81069670D01*
X162900365Y-81280000D01*
X162585585Y-81490330D01*
X162260729Y-81976511D01*
X162146655Y-82550000D01*
X162260729Y-83123489D01*
X162585585Y-83609670D01*
X162900365Y-83820000D01*
X162585585Y-84030330D01*
X162260729Y-84516511D01*
X162146655Y-85090000D01*
X162260729Y-85663489D01*
X162585585Y-86149670D01*
X162900365Y-86360000D01*
X162585585Y-86570330D01*
X162260729Y-87056511D01*
X162146655Y-87630000D01*
X162260729Y-88203489D01*
X162585585Y-88689670D01*
X162900365Y-88900000D01*
X162585585Y-89110330D01*
X162260729Y-89596511D01*
X162146655Y-90170000D01*
X162260729Y-90743489D01*
X162585585Y-91229670D01*
X163071766Y-91554526D01*
X163645255Y-91668600D01*
X164014745Y-91668600D01*
X164588234Y-91554526D01*
X165074415Y-91229670D01*
X165399271Y-90743489D01*
X165513345Y-90170000D01*
X165513345Y-95415088D01*
X165487000Y-95478691D01*
X165487000Y-95919250D01*
X165645750Y-96078000D01*
X166370000Y-96078000D01*
X166370000Y-96332000D01*
X165645750Y-96332000D01*
X165487000Y-96490750D01*
X165487000Y-96931309D01*
X165583673Y-97164698D01*
X165584955Y-97165980D01*
X165524623Y-97255360D01*
X165474560Y-97505000D01*
X165474560Y-98705000D01*
X165521537Y-98947123D01*
X165661327Y-99159927D01*
X165872360Y-99302377D01*
X166122000Y-99352440D01*
X166872000Y-99352440D01*
X167114123Y-99305463D01*
X167326927Y-99165673D01*
X167442808Y-98994000D01*
X168008560Y-98994000D01*
X168008560Y-99110800D01*
X168055537Y-99352923D01*
X168195327Y-99565727D01*
X168406360Y-99708177D01*
X168656000Y-99758240D01*
X170688000Y-99758240D01*
X170930123Y-99711263D01*
X171142927Y-99571473D01*
X171285377Y-99360440D01*
X171335440Y-99110800D01*
X171335440Y-98171000D01*
X174750764Y-98171000D01*
X174799327Y-98244927D01*
X175010360Y-98387377D01*
X175196942Y-98424794D01*
X175017877Y-98459537D01*
X174805073Y-98599327D01*
X174662623Y-98810360D01*
X174612560Y-99060000D01*
X174612560Y-100076000D01*
X174659537Y-100318123D01*
X174799327Y-100530927D01*
X175010360Y-100673377D01*
X175260000Y-100723440D01*
X177292000Y-100723440D01*
X177534123Y-100676463D01*
X177746927Y-100536673D01*
X177800707Y-100457000D01*
X178470869Y-100457000D01*
X178571327Y-100609927D01*
X178782360Y-100752377D01*
X179032000Y-100802440D01*
X180632000Y-100802440D01*
X180874123Y-100755463D01*
X181086927Y-100615673D01*
X181229377Y-100404640D01*
X181279440Y-100155000D01*
X181279440Y-100044000D01*
X183803929Y-100044000D01*
X183835845Y-100065325D01*
X184467655Y-100191000D01*
X184532345Y-100191000D01*
X185164155Y-100065325D01*
X185699778Y-99707433D01*
X186057670Y-99171810D01*
X186183345Y-98540000D01*
X186183345Y-99594403D01*
X186164442Y-99689435D01*
X185773908Y-100273910D01*
X185189434Y-100664443D01*
X184432532Y-100815000D01*
X165183345Y-100815000D01*
X165183345Y-98540000D01*
X165057670Y-97908190D01*
X164830830Y-97568701D01*
X164970927Y-97476673D01*
X165113377Y-97265640D01*
X165163440Y-97016000D01*
X165163440Y-94984000D01*
X165116463Y-94741877D01*
X164976673Y-94529073D01*
X164765640Y-94386623D01*
X164516000Y-94336560D01*
X162484000Y-94336560D01*
X162241877Y-94383537D01*
X162029073Y-94523327D01*
X161886623Y-94734360D01*
X161836560Y-94984000D01*
X161836560Y-97016000D01*
X161883537Y-97258123D01*
X162023327Y-97470927D01*
X162168860Y-97569163D01*
X161942330Y-97908190D01*
X161816655Y-98540000D01*
X161942330Y-99171810D01*
X162300222Y-99707433D01*
X162835845Y-100065325D01*
X163467655Y-100191000D01*
X163532345Y-100191000D01*
X164164155Y-100065325D01*
X164699778Y-99707433D01*
X165057670Y-99171810D01*
X165183345Y-98540000D01*
X165183345Y-100815000D01*
X163567467Y-100815000D01*
X162810564Y-100664442D01*
X162226089Y-100273908D01*
X161835556Y-99689434D01*
X161685000Y-98932532D01*
X161685000Y-93500000D01*
X161685000Y-46685000D01*
X179262569Y-46685000D01*
X179115135Y-46832433D01*
X179065640Y-46799023D01*
X178816000Y-46748960D01*
X176784000Y-46748960D01*
X176541877Y-46795937D01*
X176329073Y-46935727D01*
X176186623Y-47146760D01*
X176136560Y-47396400D01*
X176136560Y-49123600D01*
X176183537Y-49365723D01*
X176323327Y-49578527D01*
X176534360Y-49720977D01*
X176572962Y-49728718D01*
X176555585Y-49740330D01*
X176230729Y-50226511D01*
X176116655Y-50800000D01*
X176230729Y-51373489D01*
X176555585Y-51859670D01*
X176870365Y-52070000D01*
X176555585Y-52280330D01*
X176230729Y-52766511D01*
X176116655Y-53340000D01*
X176230729Y-53913489D01*
X176555585Y-54399670D01*
X176870365Y-54609999D01*
X176555585Y-54820330D01*
X176230729Y-55306511D01*
X176116655Y-55880000D01*
X176172231Y-56159400D01*
X172770800Y-56159400D01*
X172469475Y-56219337D01*
X172214024Y-56390024D01*
X171655224Y-56948824D01*
X171484537Y-57204275D01*
X171446824Y-57393868D01*
X171424415Y-57360330D01*
X171109634Y-57150000D01*
X171424415Y-56939670D01*
X171749271Y-56453489D01*
X171863345Y-55880000D01*
X171749271Y-55306511D01*
X171424415Y-54820330D01*
X171109634Y-54609999D01*
X171424415Y-54399670D01*
X171749271Y-53913489D01*
X171863345Y-53340000D01*
X171749271Y-52766511D01*
X171424415Y-52280330D01*
X171109634Y-52070000D01*
X171424415Y-51859670D01*
X171749271Y-51373489D01*
X171863345Y-50800000D01*
X171749271Y-50226511D01*
X171424415Y-49740330D01*
X171402219Y-49725499D01*
X171555698Y-49661927D01*
X171734327Y-49483299D01*
X171831000Y-49249910D01*
X171831000Y-48997291D01*
X171831000Y-48545750D01*
X171831000Y-47974250D01*
X171831000Y-47522709D01*
X171831000Y-47270090D01*
X171734327Y-47036701D01*
X171555698Y-46858073D01*
X171322309Y-46761400D01*
X170465750Y-46761400D01*
X170307000Y-46920150D01*
X170307000Y-48133000D01*
X171672250Y-48133000D01*
X171831000Y-47974250D01*
X171831000Y-48545750D01*
X171672250Y-48387000D01*
X170307000Y-48387000D01*
X170307000Y-48407000D01*
X170053000Y-48407000D01*
X170053000Y-48387000D01*
X170053000Y-48133000D01*
X170053000Y-46920150D01*
X169894250Y-46761400D01*
X169037691Y-46761400D01*
X168804302Y-46858073D01*
X168625673Y-47036701D01*
X168529000Y-47270090D01*
X168529000Y-47522709D01*
X168529000Y-47974250D01*
X168687750Y-48133000D01*
X170053000Y-48133000D01*
X170053000Y-48387000D01*
X168687750Y-48387000D01*
X168529000Y-48545750D01*
X168529000Y-48997291D01*
X168529000Y-49249910D01*
X168530171Y-49252738D01*
X167003717Y-47726283D01*
X166735906Y-47547337D01*
X166420000Y-47484500D01*
X165981958Y-47484500D01*
X165718980Y-47221062D01*
X165246772Y-47024984D01*
X164735472Y-47024538D01*
X164262921Y-47219792D01*
X163901062Y-47581020D01*
X163896433Y-47592166D01*
X163889189Y-47590416D01*
X163709584Y-47770021D01*
X163709584Y-47410811D01*
X163653874Y-47180191D01*
X163170980Y-47012139D01*
X162660533Y-47041675D01*
X162326126Y-47180191D01*
X162270416Y-47410811D01*
X162990000Y-48130395D01*
X163709584Y-47410811D01*
X163709584Y-47770021D01*
X163169605Y-48310000D01*
X163183747Y-48324142D01*
X163004142Y-48503747D01*
X162990000Y-48489605D01*
X162810395Y-48669210D01*
X162810395Y-48310000D01*
X162090811Y-47590416D01*
X161860191Y-47646126D01*
X161692139Y-48129020D01*
X161721675Y-48639467D01*
X161860191Y-48973874D01*
X162090811Y-49029584D01*
X162810395Y-48310000D01*
X162810395Y-48669210D01*
X162270416Y-49209189D01*
X162272064Y-49216013D01*
X162262921Y-49219792D01*
X161901062Y-49581020D01*
X161704984Y-50053228D01*
X161704538Y-50564528D01*
X161899792Y-51037079D01*
X162172395Y-51310159D01*
X161901062Y-51581020D01*
X161704984Y-52053228D01*
X161704538Y-52564528D01*
X161899792Y-53037079D01*
X162172395Y-53310159D01*
X161901062Y-53581020D01*
X161704984Y-54053228D01*
X161704538Y-54564528D01*
X161899792Y-55037079D01*
X162172395Y-55310159D01*
X161901062Y-55581020D01*
X161704984Y-56053228D01*
X161704538Y-56564528D01*
X161899792Y-57037079D01*
X162172395Y-57310159D01*
X161901062Y-57581020D01*
X161704984Y-58053228D01*
X161704538Y-58564528D01*
X161899792Y-59037079D01*
X162172395Y-59310159D01*
X161901062Y-59581020D01*
X161704984Y-60053228D01*
X161704538Y-60564528D01*
X161899792Y-61037079D01*
X162172395Y-61310159D01*
X161901062Y-61581020D01*
X161704984Y-62053228D01*
X161704538Y-62564528D01*
X161899792Y-63037079D01*
X162172395Y-63310159D01*
X161901062Y-63581020D01*
X161704984Y-64053228D01*
X161704538Y-64564528D01*
X161899792Y-65037079D01*
X162261020Y-65398938D01*
X162733228Y-65595016D01*
X163244528Y-65595462D01*
X163717079Y-65400208D01*
X163990159Y-65127604D01*
X164261020Y-65398938D01*
X164733228Y-65595016D01*
X165197790Y-65595421D01*
X166166800Y-66564430D01*
X166166800Y-67818000D01*
X166224804Y-68109605D01*
X166389985Y-68356815D01*
X166827200Y-68794030D01*
X166827200Y-89052400D01*
X166885204Y-89344005D01*
X167050385Y-89591215D01*
X168563436Y-91104267D01*
X168496655Y-91440000D01*
X168610729Y-92013489D01*
X168935585Y-92499670D01*
X169421766Y-92824526D01*
X169995255Y-92938600D01*
X170364745Y-92938600D01*
X170938234Y-92824526D01*
X171424415Y-92499670D01*
X171749271Y-92013489D01*
X171863345Y-91440000D01*
X171749271Y-90866511D01*
X171424415Y-90380330D01*
X171109634Y-90170000D01*
X171424415Y-89959670D01*
X171749271Y-89473489D01*
X171863345Y-88900000D01*
X171749271Y-88326511D01*
X171424415Y-87840330D01*
X171109634Y-87630000D01*
X171424415Y-87419670D01*
X171749271Y-86933489D01*
X171863345Y-86360000D01*
X171749271Y-85786511D01*
X171424415Y-85300330D01*
X171109634Y-85090000D01*
X171424415Y-84879670D01*
X171749271Y-84393489D01*
X171863345Y-83820000D01*
X171749271Y-83246511D01*
X171424415Y-82760330D01*
X171109634Y-82550000D01*
X171424415Y-82339670D01*
X171749271Y-81853489D01*
X171863345Y-81280000D01*
X171749271Y-80706511D01*
X171424415Y-80220330D01*
X171109634Y-80009999D01*
X171424415Y-79799670D01*
X171749271Y-79313489D01*
X171863345Y-78740000D01*
X171749271Y-78166511D01*
X171424415Y-77680330D01*
X171114930Y-77473539D01*
X171530732Y-77102036D01*
X171784709Y-76574791D01*
X171787358Y-76559026D01*
X171666217Y-76327000D01*
X170307000Y-76327000D01*
X170307000Y-76347000D01*
X170053000Y-76347000D01*
X170053000Y-76327000D01*
X170033000Y-76327000D01*
X170033000Y-76073000D01*
X170053000Y-76073000D01*
X170053000Y-76053000D01*
X170307000Y-76053000D01*
X170307000Y-76073000D01*
X171666217Y-76073000D01*
X171787358Y-75840974D01*
X171784709Y-75825209D01*
X171530732Y-75297964D01*
X171114930Y-74926460D01*
X171424415Y-74719670D01*
X171749271Y-74233489D01*
X171863345Y-73660000D01*
X171749271Y-73086511D01*
X171424415Y-72600330D01*
X171109634Y-72389999D01*
X171424415Y-72179670D01*
X171749271Y-71693489D01*
X171863345Y-71120000D01*
X171749271Y-70546511D01*
X171424415Y-70060330D01*
X171109634Y-69850000D01*
X171424415Y-69639670D01*
X171749271Y-69153489D01*
X171863345Y-68580000D01*
X171749271Y-68006511D01*
X171424415Y-67520330D01*
X171109634Y-67310000D01*
X171424415Y-67099670D01*
X171749271Y-66613489D01*
X171863345Y-66040000D01*
X171749271Y-65466511D01*
X171424415Y-64980330D01*
X171109634Y-64769999D01*
X171424415Y-64559670D01*
X171677600Y-64180752D01*
X173558200Y-66061352D01*
X173558200Y-68422693D01*
X173383955Y-68596635D01*
X173210797Y-69013644D01*
X173210403Y-69465175D01*
X173382833Y-69882486D01*
X173701835Y-70202045D01*
X174118844Y-70375203D01*
X174570375Y-70375597D01*
X174987686Y-70203167D01*
X175307245Y-69884165D01*
X175480403Y-69467156D01*
X175480797Y-69015625D01*
X175308367Y-68598314D01*
X175133000Y-68422640D01*
X175133000Y-65735200D01*
X175073063Y-65433875D01*
X174946618Y-65244637D01*
X175129175Y-65244797D01*
X175546486Y-65072367D01*
X175866045Y-64753365D01*
X176039203Y-64336356D01*
X176039419Y-64088132D01*
X176201418Y-63926133D01*
X176230729Y-64073489D01*
X176555585Y-64559670D01*
X176870365Y-64769999D01*
X176555585Y-64980330D01*
X176230729Y-65466511D01*
X176116655Y-66040000D01*
X176230729Y-66613489D01*
X176555585Y-67099670D01*
X176870365Y-67310000D01*
X176555585Y-67520330D01*
X176230729Y-68006511D01*
X176116655Y-68580000D01*
X176230729Y-69153489D01*
X176555585Y-69639670D01*
X176870365Y-69850000D01*
X176555585Y-70060330D01*
X176230729Y-70546511D01*
X176116655Y-71120000D01*
X176230729Y-71693489D01*
X176555585Y-72179670D01*
X176870365Y-72389999D01*
X176555585Y-72600330D01*
X176230729Y-73086511D01*
X176116655Y-73660000D01*
X176230729Y-74233489D01*
X176555585Y-74719670D01*
X176870365Y-74930000D01*
X176555585Y-75140330D01*
X176230729Y-75626511D01*
X176116655Y-76200000D01*
X176230729Y-76773489D01*
X176555585Y-77259670D01*
X176870365Y-77470000D01*
X176555585Y-77680330D01*
X176230729Y-78166511D01*
X176116655Y-78740000D01*
X176230729Y-79313489D01*
X176555585Y-79799670D01*
X176870365Y-80009999D01*
X176555585Y-80220330D01*
X176230729Y-80706511D01*
X176116655Y-81280000D01*
X176230729Y-81853489D01*
X176555585Y-82339670D01*
X176870365Y-82550000D01*
X176555585Y-82760330D01*
X176230729Y-83246511D01*
X176116655Y-83820000D01*
X176230729Y-84393489D01*
X176555585Y-84879670D01*
X176870365Y-85090000D01*
X176555585Y-85300330D01*
X176230729Y-85786511D01*
X176116655Y-86360000D01*
X176230729Y-86933489D01*
X176555585Y-87419670D01*
X176870365Y-87630000D01*
X176555585Y-87840330D01*
X176230729Y-88326511D01*
X176116655Y-88900000D01*
X176230729Y-89473489D01*
X176555585Y-89959670D01*
X176870365Y-90170000D01*
X176555585Y-90380330D01*
X176230729Y-90866511D01*
X176116655Y-91440000D01*
X176230729Y-92013489D01*
X176555585Y-92499670D01*
X177041766Y-92824526D01*
X177615255Y-92938600D01*
X177984745Y-92938600D01*
X178558234Y-92824526D01*
X179044415Y-92499670D01*
X179277664Y-92150588D01*
X179277664Y-92150587D01*
X179310804Y-92143996D01*
X179310805Y-92143996D01*
X179558015Y-91978815D01*
X180878815Y-90658016D01*
X180878815Y-90658015D01*
X181043996Y-90410805D01*
X181101999Y-90119200D01*
X181102000Y-90119200D01*
X181102000Y-69352830D01*
X181590015Y-68864815D01*
X181590016Y-68864815D01*
X181689034Y-68716623D01*
X181755196Y-68617605D01*
X181755196Y-68617604D01*
X181813200Y-68326000D01*
X181813200Y-65492030D01*
X182083811Y-65221419D01*
X182261020Y-65398938D01*
X182733228Y-65595016D01*
X183244528Y-65595462D01*
X183717079Y-65400208D01*
X183990159Y-65127604D01*
X184261020Y-65398938D01*
X184733228Y-65595016D01*
X185244528Y-65595462D01*
X185717079Y-65400208D01*
X186078938Y-65038980D01*
X186275016Y-64566772D01*
X186275462Y-64055472D01*
X186080208Y-63582921D01*
X185807604Y-63309840D01*
X186078938Y-63038980D01*
X186275016Y-62566772D01*
X186275462Y-62055472D01*
X186080208Y-61582921D01*
X185807604Y-61309840D01*
X186078938Y-61038980D01*
X186275016Y-60566772D01*
X186275462Y-60055472D01*
X186080208Y-59582921D01*
X185807604Y-59309840D01*
X186078938Y-59038980D01*
X186275016Y-58566772D01*
X186275462Y-58055472D01*
X186080208Y-57582921D01*
X185807604Y-57309840D01*
X186078938Y-57038980D01*
X186275016Y-56566772D01*
X186275462Y-56055472D01*
X186080208Y-55582921D01*
X185807604Y-55309840D01*
X186078938Y-55038980D01*
X186275016Y-54566772D01*
X186275462Y-54055472D01*
X186080208Y-53582921D01*
X185807604Y-53309840D01*
X186078938Y-53038980D01*
X186275016Y-52566772D01*
X186275462Y-52055472D01*
X186080208Y-51582921D01*
X185807604Y-51309840D01*
X186078938Y-51038980D01*
X186275016Y-50566772D01*
X186275462Y-50055472D01*
X186080208Y-49582921D01*
X185807604Y-49309840D01*
X186078938Y-49038980D01*
X186275016Y-48566772D01*
X186275462Y-48055472D01*
X186080208Y-47582921D01*
X185718980Y-47221062D01*
X185672812Y-47201891D01*
X185528815Y-46986385D01*
X185528815Y-46986384D01*
X185227430Y-46685000D01*
X186315000Y-46685000D01*
X186315000Y-93500000D01*
X186315000Y-98932532D01*
M02*
