M48
INCH,TZ
T1C0.022
T2C0.032
T3C0.040
T4C0.079
%
G90
G05
T1
X64020Y-26180
X67860Y-37580
X68640Y-27260
X68860Y-25240
T2
X64169Y-19020
X64169Y-19807
X64169Y-20594
X64169Y-21382
X64169Y-22169
X64169Y-22957
X64169Y-23744
X64169Y-24531
X64169Y-25319
X64957Y-19020
X64957Y-19807
X64957Y-20594
X64957Y-21382
X64957Y-22169
X64957Y-22957
X64957Y-23744
X64957Y-24531
X64957Y-25319
X72043Y-19020
X72043Y-19807
X72043Y-20594
X72043Y-21382
X72043Y-22169
X72043Y-22957
X72043Y-23744
X72043Y-24531
X72043Y-25319
X72831Y-19020
X72831Y-19807
X72831Y-20594
X72831Y-21382
X72831Y-22169
X72831Y-22957
X72831Y-23744
X72831Y-24531
X72831Y-25319
T3
X64370Y-37795
X64370Y-38795
X64500Y-28500
X64500Y-29500
X64500Y-30500
X64500Y-31500
X64500Y-32500
X64500Y-33500
X64500Y-34500
X64500Y-35500
X67000Y-19000
X67000Y-20000
X67000Y-21000
X67000Y-22000
X67000Y-23000
X67000Y-24000
X67000Y-25000
X67000Y-26000
X67000Y-27000
X67000Y-28000
X67000Y-29000
X67000Y-30000
X67000Y-31000
X67000Y-32000
X67000Y-33000
X67000Y-34000
X67000Y-35000
X67000Y-36000
X70000Y-19000
X70000Y-20000
X70000Y-21000
X70000Y-22000
X70000Y-23000
X70000Y-24000
X70000Y-25000
X70000Y-26000
X70000Y-27000
X70000Y-28000
X70000Y-29000
X70000Y-30000
X70000Y-31000
X70000Y-32000
X70000Y-33000
X70000Y-34000
X70000Y-35000
X70000Y-36000
X72500Y-28500
X72500Y-29500
X72500Y-30500
X72500Y-31500
X72500Y-32500
X72500Y-33500
X72500Y-34500
X72500Y-35500
X72638Y-37795
X72638Y-38795
T4
X68504Y-23268G85X68504Y-24370
G05
X68504Y-33307G85X68504Y-34409
G05
T0
M30
